<svg width="109" height="30" viewBox="0 0 109 30" fill="none" xmlns="http://www.w3.org/2000/svg">
<g clip-path="url(#clip0_1672_11)">
<path fill-rule="evenodd" clip-rule="evenodd" d="M7.50081 11.8043C7.50081 11.1622 6.72443 10.8406 6.27036 11.2946L3.88308 13.6819C3.12231 14.4427 3.12231 15.6761 3.88308 16.4369L7.44937 20.0032C7.46114 20.015 7.48022 20.015 7.49198 20.0032C7.49763 19.9975 7.50081 19.9899 7.50081 19.9819V11.8043ZM13.2445 25.7983L10.0466 22.6004C9.76509 22.3189 9.76509 21.8625 10.0466 21.581L13.8907 17.7369C14.1722 17.4555 14.6286 17.4555 14.91 17.7369L18.9757 21.8026C19.2572 22.0841 19.2572 22.5405 18.9757 22.822L15.9994 25.7983C15.2387 26.559 14.0052 26.559 13.2445 25.7983ZM21.0419 19.7364C21.3234 20.0179 21.7798 20.0179 22.0613 19.7364L25.3608 16.4369C26.1215 15.6761 26.1215 14.4427 25.3608 13.6819L22.1629 10.4841C21.8814 10.2026 21.4251 10.2026 21.1436 10.4841L16.9763 14.6514C16.6948 14.9329 16.6948 15.3892 16.9763 15.6707L21.0419 19.7364ZM15.9994 4.32057L19.0774 7.39851C19.3588 7.67999 19.3588 8.13636 19.0774 8.41784L11.6534 15.8418C11.1993 16.2959 10.4229 15.9743 10.4229 15.3322V7.44068C10.4229 7.24952 10.4988 7.06618 10.634 6.93101L13.2445 4.32057C14.0052 3.55981 15.2387 3.55981 15.9994 4.32057Z" fill="url(#paint0_linear_1672_11)"/>
<g filter="url(#filter0_d_1672_11)">
<path d="M33.2795 7.48245C34.1516 7.48245 34.9225 7.80332 35.5922 8.44507C36.2696 9.07399 36.7914 9.95319 37.1574 11.0827C37.5311 12.2122 37.718 13.4892 37.718 14.9139C37.718 16.3771 37.4377 17.7312 36.877 18.9762C36.3242 20.2084 35.635 21.1903 34.8096 21.9219C33.9842 22.6406 33.1977 23 32.4502 23C32.092 23 31.7377 22.9679 31.3873 22.9037C30.8033 22.8396 30.3555 22.8075 30.0441 22.8075H28.1986V21.7293L29.2965 20.3046V9.58097L28 8.92639L28.3854 7.67497H30.0324C30.7488 7.67497 31.4496 7.63647 32.1348 7.55946C32.6643 7.50812 33.0459 7.48245 33.2795 7.48245ZM32.7889 21.2095C33.2795 21.2095 33.7233 20.9785 34.1205 20.5164C34.5254 20.0544 34.8408 19.4126 35.0666 18.5912C35.3002 17.7697 35.417 16.8456 35.417 15.8188C35.417 14.5866 35.3041 13.4764 35.0783 12.4881C34.8602 11.487 34.5215 10.6912 34.0621 10.1008C33.6104 9.49755 33.0498 9.19592 32.3801 9.19592C32.0297 9.19592 31.7065 9.34994 31.4106 9.65798V20.8437C31.8078 21.0876 32.2633 21.2095 32.7772 21.2095H32.7889Z" fill="black"/>
<path d="M48.1943 22.8075H44.1296V21.7293L45.0523 20.7282L43.1367 16.974L41.1745 20.3431L42.5995 21.5368L42.214 22.7882H38.453V21.7101L39.8429 20.1699L42.471 15.7033L39.4691 9.86976L38.488 8.92639L38.8734 7.67497H42.9382V8.75311L41.9804 9.67724L43.896 13.4315L45.6831 10.1393L44.2464 8.92639L44.6201 7.67497H48.3929V8.75311L47.0847 10.1971L44.5968 14.7407L47.7271 20.8245L48.5681 21.5561L48.1943 22.8075Z" fill="black"/>
<path d="M53.9847 15.2797C54.3974 15.2797 54.7245 15.0423 54.9659 14.5674C55.2073 14.0925 55.328 13.4379 55.328 12.6036C55.328 11.5897 55.18 10.7682 54.8841 10.1393C54.5882 9.49755 54.1521 9.17667 53.5759 9.17667C53.1944 9.17667 52.8362 9.3692 52.5013 9.75425V20.8245L54.5337 21.5561L54.1483 22.8075H49.2893V21.7293L50.3872 20.3046V9.58097L49.0907 8.92639L49.4761 7.67497H51.4151C52.1081 7.67497 52.7894 7.63647 53.4591 7.55946C53.9575 7.50812 54.3235 7.48245 54.5571 7.48245C55.1644 7.48245 55.7017 7.68139 56.1689 8.07927C56.6362 8.46433 56.9982 8.99698 57.2552 9.67724C57.5122 10.3575 57.6407 11.1148 57.6407 11.949C57.6407 12.8732 57.4265 13.7395 56.9982 14.5481C56.57 15.3567 56.0288 15.9921 55.3747 16.4541C54.7206 16.9162 54.0821 17.1216 53.4591 17.0702L52.9452 16.5504L53.3306 15.299H53.9847V15.2797Z" fill="black"/>
<path d="M62.1766 14.9717C61.8963 14.9717 61.616 15.177 61.3356 15.5878V20.786L63.1111 21.5561L62.7373 22.8075H58.3105V21.7293L59.35 20.2854V15.9151L58.3105 14.8369V13.7588L60.74 12.0646L61.1838 14.2016L62.2467 12.3918C62.4102 12.2892 62.601 12.2378 62.819 12.2378C63.224 12.2378 63.5705 12.3918 63.8586 12.6999C64.1545 13.0079 64.3608 13.4315 64.4776 13.9706L63.3563 16.2809H62.6205C62.6127 15.8188 62.5738 15.4915 62.5037 15.299C62.4336 15.0936 62.3246 14.9909 62.1766 14.9909V14.9717Z" fill="black"/>
<path d="M68.7952 12.2378C69.3714 12.2378 69.8853 12.4624 70.337 12.9117C70.7886 13.3481 71.139 13.9513 71.3882 14.7214C71.6452 15.4915 71.7736 16.345 71.7736 17.282C71.7736 18.296 71.5751 19.2458 71.1779 20.1314C70.7808 21.0042 70.2824 21.7037 69.6829 22.2299C69.0911 22.7433 68.5187 23 67.9659 23C67.3974 23 66.8835 22.7818 66.4241 22.3454C65.9724 21.8962 65.6181 21.2865 65.3612 20.5164C65.112 19.7463 64.9874 18.8928 64.9874 17.9558C64.9874 16.9419 65.1859 15.9985 65.5831 15.1257C65.9802 14.2401 66.4747 13.5406 67.0665 13.0272C67.6661 12.5009 68.2423 12.2378 68.7952 12.2378ZM68.1177 14.4711C67.7907 14.4711 67.5415 14.6893 67.3702 15.1257C67.2066 15.5493 67.1249 16.1846 67.1249 17.0317C67.1249 18.1099 67.2573 19.0083 67.522 19.7271C67.7868 20.433 68.1605 20.786 68.6433 20.786C68.9626 20.786 69.204 20.5678 69.3675 20.1314C69.5388 19.6821 69.6245 19.034 69.6245 18.1869C69.6245 17.1087 69.4921 16.2231 69.2273 15.53C68.9626 14.8241 68.5927 14.4711 68.1177 14.4711Z" fill="black"/>
<path d="M76.8813 22.846C76.6165 22.9487 76.3012 23 75.9352 23C75.1877 23 74.6387 22.724 74.2883 22.1721C73.9456 21.6074 73.7743 20.741 73.7743 19.573V14.2786H72.5129V13.2582L75.0241 8.75311H75.76V13.0079H77.8624V14.2786H75.76V19.4383C75.76 20.3239 76.0637 20.7667 76.6711 20.7667C76.8268 20.7667 76.9786 20.7282 77.1266 20.6512C77.2823 20.5613 77.477 20.4137 77.7106 20.2084L78.061 21.3058L76.8813 22.846Z" fill="black"/>
<path d="M82.4944 12.2378C83.0706 12.2378 83.5846 12.4624 84.0362 12.9117C84.4878 13.3481 84.8383 13.9513 85.0874 14.7214C85.3444 15.4915 85.4729 16.345 85.4729 17.282C85.4729 18.296 85.2743 19.2458 84.8772 20.1314C84.4801 21.0042 83.9817 21.7037 83.3821 22.2299C82.7903 22.7433 82.218 23 81.6651 23C81.0967 23 80.5827 22.7818 80.1233 22.3454C79.6717 21.8962 79.3174 21.2865 79.0604 20.5164C78.8112 19.7463 78.6866 18.8928 78.6866 17.9558C78.6866 16.9419 78.8852 15.9985 79.2823 15.1257C79.6795 14.2401 80.1739 13.5406 80.7657 13.0272C81.3653 12.5009 81.9415 12.2378 82.4944 12.2378ZM81.817 14.4711C81.4899 14.4711 81.2407 14.6893 81.0694 15.1257C80.9059 15.5493 80.8241 16.1846 80.8241 17.0317C80.8241 18.1099 80.9565 19.0083 81.2213 19.7271C81.486 20.433 81.8598 20.786 82.3426 20.786C82.6618 20.786 82.9032 20.5678 83.0667 20.1314C83.2381 19.6821 83.3237 19.034 83.3237 18.1869C83.3237 17.1087 83.1913 16.2231 82.9266 15.53C82.6618 14.8241 82.292 14.4711 81.817 14.4711Z" fill="black"/>
<path d="M90.3937 12.2378C90.7596 12.2378 91.184 12.3148 91.6668 12.4689C92.1496 12.61 92.5 12.7705 92.718 12.9502V16.5311H91.9822C91.6863 15.8766 91.3514 15.3696 90.9777 15.0102C90.6039 14.6508 90.2146 14.4711 89.8096 14.4711C89.5215 14.4711 89.2996 14.6957 89.1439 15.145C88.9959 15.5814 88.9219 16.2103 88.9219 17.0317C88.9219 18.0713 89.0543 18.9313 89.3191 19.6116C89.5916 20.2918 89.9771 20.6319 90.4754 20.6319C90.9816 20.6319 91.7096 20.2276 92.6596 19.419L93.01 20.5164L91.3281 22.7112C90.8842 22.9037 90.3742 23 89.798 23C89.2295 23 88.7156 22.7818 88.2562 22.3454C87.8045 21.8962 87.4502 21.2865 87.1933 20.5164C86.9441 19.7463 86.8195 18.8928 86.8195 17.9558C86.8195 16.9419 87.0025 15.9985 87.3685 15.1257C87.7422 14.2401 88.2094 13.5406 88.7701 13.0272C89.3308 12.5009 89.8719 12.2378 90.3937 12.2378Z" fill="black"/>
<path d="M98.0757 12.2378C98.652 12.2378 99.1659 12.4624 99.6175 12.9117C100.069 13.3481 100.42 13.9513 100.669 14.7214C100.926 15.4915 101.054 16.345 101.054 17.282C101.054 18.296 100.856 19.2458 100.459 20.1314C100.061 21.0042 99.563 21.7037 98.9634 22.2299C98.3716 22.7433 97.7993 23 97.2464 23C96.678 23 96.1641 22.7818 95.7046 22.3454C95.253 21.8962 94.8987 21.2865 94.6417 20.5164C94.3926 19.7463 94.268 18.8928 94.268 17.9558C94.268 16.9419 94.4665 15.9985 94.8637 15.1257C95.2608 14.2401 95.7553 13.5406 96.3471 13.0272C96.9466 12.5009 97.5229 12.2378 98.0757 12.2378ZM97.3983 14.4711C97.0712 14.4711 96.8221 14.6893 96.6507 15.1257C96.4872 15.5493 96.4055 16.1846 96.4055 17.0317C96.4055 18.1099 96.5378 19.0083 96.8026 19.7271C97.0673 20.433 97.4411 20.786 97.9239 20.786C98.2432 20.786 98.4845 20.5678 98.6481 20.1314C98.8194 19.6821 98.905 19.034 98.905 18.1869C98.905 17.1087 98.7727 16.2231 98.5079 15.53C98.2432 14.8241 97.8733 14.4711 97.3983 14.4711Z" fill="black"/>
<path d="M105.615 22.8075H101.924V21.7293L102.963 20.2854V9.75425L101.924 8.61835V7.5402L104.213 6H104.949V20.9785L106 21.5561L105.615 22.8075Z" fill="black"/>
</g>
</g>
<defs>
<filter id="filter0_d_1672_11" x="24" y="6" width="86" height="25" filterUnits="userSpaceOnUse" color-interpolation-filters="sRGB">
<feFlood flood-opacity="0" result="BackgroundImageFix"/>
<feColorMatrix in="SourceAlpha" type="matrix" values="0 0 0 0 0 0 0 0 0 0 0 0 0 0 0 0 0 0 127 0" result="hardAlpha"/>
<feOffset dy="4"/>
<feGaussianBlur stdDeviation="2"/>
<feComposite in2="hardAlpha" operator="out"/>
<feColorMatrix type="matrix" values="0 0 0 0 0 0 0 0 0 0 0 0 0 0 0 0 0 0 0.25 0"/>
<feBlend mode="normal" in2="BackgroundImageFix" result="effect1_dropShadow_1672_11"/>
<feBlend mode="normal" in="SourceGraphic" in2="effect1_dropShadow_1672_11" result="shape"/>
</filter>
<linearGradient id="paint0_linear_1672_11" x1="5.47971" y1="5.65292" x2="15.3661" y2="16.7325" gradientUnits="userSpaceOnUse">
<stop offset="0.839326" stop-color="#5352ED"/>
<stop offset="0.9375" stop-color="#FF7A00" stop-opacity="0.84"/>
</linearGradient>
<clipPath id="clip0_1672_11">
<rect width="109" height="30" fill="white"/>
</clipPath>
</defs>
</svg>
