<svg width="2233" height="616" viewBox="0 0 2233 616" fill="none" xmlns="http://www.w3.org/2000/svg">
<path fill-rule="evenodd" clip-rule="evenodd" d="M154 242.382C154 229.196 138.058 222.593 128.735 231.916L79.7157 280.936C64.0947 296.557 64.0948 321.883 79.7157 337.504L152.944 410.733C153.186 410.974 153.577 410.974 153.819 410.733C153.935 410.617 154 410.46 154 410.296V242.382ZM271.936 529.724L206.273 464.062C200.493 458.282 200.493 448.911 206.273 443.131L285.206 364.199C290.986 358.419 300.356 358.419 306.136 364.199L389.618 447.68C395.397 453.46 395.397 462.831 389.618 468.611L328.504 529.724C312.883 545.345 287.557 545.345 271.936 529.724ZM432.044 405.254C437.824 411.034 447.195 411.034 452.974 405.254L520.724 337.504C536.345 321.883 536.345 296.557 520.724 280.936L455.062 215.273C449.282 209.493 439.911 209.493 434.131 215.273L348.563 300.842C342.783 306.622 342.783 315.993 348.563 321.772L432.044 405.254ZM328.504 88.7157L391.705 151.916C397.485 157.696 397.485 167.067 391.705 172.847L239.265 325.287C229.942 334.61 214 328.007 214 314.821V152.782C214 148.856 215.559 145.092 218.335 142.317L271.936 88.7157C287.557 73.0948 312.883 73.0947 328.504 88.7157Z" fill="url(#paint0_linear_1672_3)"/>
<g filter="url(#filter0_d_1672_3)">
<path d="M710.664 187.957C727.458 187.957 742.303 194.658 755.198 208.059C768.244 221.192 778.29 239.552 785.338 263.138C792.535 286.724 796.134 313.393 796.134 343.144C796.134 373.699 790.736 401.975 779.94 427.974C769.293 453.704 756.023 474.208 740.129 489.486C724.234 504.495 709.09 512 694.695 512C687.797 512 680.975 511.33 674.227 509.99C662.981 508.65 654.359 507.98 648.361 507.98H612.824V485.465L633.966 455.715V231.779L609 218.11L616.422 191.977H648.136C661.931 191.977 675.427 191.173 688.622 189.565C698.818 188.493 706.166 187.957 710.664 187.957ZM701.217 474.61C710.664 474.61 719.211 469.786 726.858 460.137C734.656 450.488 740.728 437.087 745.077 419.933C749.575 402.78 751.825 383.482 751.825 362.04C751.825 336.309 749.65 313.125 745.302 292.487C741.103 271.581 734.581 254.963 725.734 242.634C717.037 230.037 706.241 223.738 693.345 223.738C686.598 223.738 680.375 226.955 674.677 233.387V466.972C682.324 472.064 691.096 474.61 700.993 474.61H701.217Z" fill="white"/>
<path d="M997.87 507.98H919.598V485.465L937.366 464.559L900.479 386.162L862.693 456.519L890.133 481.445L882.711 507.578H810.286V485.063L837.052 452.9L887.659 359.627L829.854 237.81L810.961 218.11L818.383 191.977H896.656V214.492L878.212 233.789L915.099 312.187L949.512 243.438L921.847 218.11L929.044 191.977H1001.69V214.492L976.503 244.644L928.594 339.525L988.873 466.57L1005.07 481.847L997.87 507.98Z" fill="white"/>
<path d="M1109.37 350.783C1117.32 350.783 1123.62 345.824 1128.27 335.907C1132.91 325.99 1135.24 312.321 1135.24 294.899C1135.24 273.725 1132.39 256.572 1126.69 243.438C1120.99 230.037 1112.6 223.336 1101.5 223.336C1094.15 223.336 1087.26 227.357 1080.81 235.398V466.57L1119.94 481.847L1112.52 507.98H1018.95V485.465L1040.1 455.715V231.779L1015.13 218.11L1022.55 191.977H1059.89C1073.24 191.977 1086.36 191.173 1099.25 189.565C1108.85 188.493 1115.9 187.957 1120.39 187.957C1132.09 187.957 1142.44 192.111 1151.43 200.42C1160.43 208.461 1167.4 219.584 1172.35 233.789C1177.3 247.995 1179.77 263.808 1179.77 281.23C1179.77 300.528 1175.65 318.619 1167.4 335.505C1159.16 352.391 1148.73 365.658 1136.14 375.307C1123.54 384.956 1111.25 389.244 1099.25 388.172L1089.35 377.317L1096.78 351.185H1109.37V350.783Z" fill="white"/>
<path d="M1267.12 344.35C1261.72 344.35 1256.32 348.638 1250.92 357.215V465.766L1285.11 481.847L1277.92 507.98H1192.67V485.465L1212.69 455.313V364.05L1192.67 341.536V319.022L1239.45 283.642L1248 328.268L1268.47 290.477C1271.62 288.333 1275.29 287.26 1279.49 287.26C1287.29 287.26 1293.96 290.477 1299.51 296.909C1305.21 303.342 1309.18 312.187 1311.43 323.444L1289.84 371.689H1275.67C1275.52 362.04 1274.77 355.205 1273.42 351.185C1272.07 346.896 1269.97 344.752 1267.12 344.752V344.35Z" fill="white"/>
<path d="M1394.57 287.26C1405.66 287.26 1415.56 291.951 1424.26 301.332C1432.95 310.445 1439.7 323.042 1444.5 339.123C1449.45 355.205 1451.92 373.029 1451.92 392.595C1451.92 413.769 1448.1 433.603 1440.45 452.096C1432.8 470.322 1423.21 484.929 1411.66 495.918C1400.27 506.639 1389.25 512 1378.6 512C1367.65 512 1357.76 507.444 1348.91 498.331C1340.21 488.95 1333.39 476.219 1328.44 460.137C1323.64 444.055 1321.24 426.232 1321.24 406.666C1321.24 385.492 1325.07 365.792 1332.72 347.566C1340.36 329.072 1349.88 314.465 1361.28 303.744C1372.83 292.755 1383.92 287.26 1394.57 287.26ZM1381.52 333.897C1375.23 333.897 1370.43 338.453 1367.13 347.566C1363.98 356.411 1362.4 369.678 1362.4 387.368C1362.4 409.882 1364.95 428.644 1370.05 443.653C1375.15 458.395 1382.35 465.766 1391.64 465.766C1397.79 465.766 1402.44 461.209 1405.59 452.096C1408.89 442.715 1410.54 429.18 1410.54 411.49C1410.54 388.976 1407.99 370.482 1402.89 356.009C1397.79 341.268 1390.67 333.897 1381.52 333.897Z" fill="white"/>
<path d="M1550.28 508.784C1545.18 510.928 1539.11 512 1532.06 512C1517.66 512 1507.09 506.237 1500.35 494.712C1493.75 482.919 1490.45 464.827 1490.45 440.437V329.877H1466.16V308.569L1514.52 214.492H1528.69V303.342H1569.17V329.877H1528.69V437.623C1528.69 456.117 1534.53 465.364 1546.23 465.364C1549.23 465.364 1552.15 464.559 1555 462.951C1558 461.075 1561.75 457.993 1566.25 453.704L1573 476.621L1550.28 508.784Z" fill="white"/>
<path d="M1658.37 287.26C1669.46 287.26 1679.36 291.951 1688.06 301.332C1696.75 310.445 1703.5 323.042 1708.3 339.123C1713.25 355.205 1715.72 373.029 1715.72 392.595C1715.72 413.769 1711.9 433.603 1704.25 452.096C1696.6 470.322 1687.01 484.929 1675.46 495.918C1664.06 506.639 1653.04 512 1642.4 512C1631.45 512 1621.55 507.444 1612.71 498.331C1604.01 488.95 1597.19 476.219 1592.24 460.137C1587.44 444.055 1585.04 426.232 1585.04 406.666C1585.04 385.492 1588.87 365.792 1596.51 347.566C1604.16 329.072 1613.68 314.465 1625.08 303.744C1636.62 292.755 1647.72 287.26 1658.37 287.26ZM1645.32 333.897C1639.02 333.897 1634.23 338.453 1630.93 347.566C1627.78 356.411 1626.2 369.678 1626.2 387.368C1626.2 409.882 1628.75 428.644 1633.85 443.653C1638.95 458.395 1646.15 465.766 1655.44 465.766C1661.59 465.766 1666.24 461.209 1669.39 452.096C1672.69 442.715 1674.34 429.18 1674.34 411.49C1674.34 388.976 1671.79 370.482 1666.69 356.009C1661.59 341.268 1654.47 333.897 1645.32 333.897Z" fill="white"/>
<path d="M1810.48 287.26C1817.53 287.26 1825.7 288.869 1834.99 292.085C1844.29 295.033 1851.04 298.384 1855.24 302.136V376.915H1841.07C1835.37 363.246 1828.92 352.659 1821.72 345.154C1814.53 337.649 1807.03 333.897 1799.23 333.897C1793.68 333.897 1789.41 338.587 1786.41 347.968C1783.56 357.081 1782.14 370.214 1782.14 387.368C1782.14 409.078 1784.69 427.036 1789.79 441.241C1795.03 455.447 1802.46 462.549 1812.05 462.549C1821.8 462.549 1835.82 454.106 1854.11 437.221L1860.86 460.137L1828.47 505.969C1819.92 509.99 1810.1 512 1799.01 512C1788.06 512 1778.16 507.444 1769.32 498.331C1760.62 488.95 1753.8 476.219 1748.85 460.137C1744.05 444.055 1741.65 426.232 1741.65 406.666C1741.65 385.492 1745.18 365.792 1752.22 347.566C1759.42 329.072 1768.42 314.465 1779.21 303.744C1790.01 292.755 1800.43 287.26 1810.48 287.26Z" fill="white"/>
<path d="M1958.41 287.26C1969.5 287.26 1979.4 291.951 1988.1 301.332C1996.79 310.445 2003.54 323.042 2008.34 339.123C2013.29 355.205 2015.76 373.029 2015.76 392.595C2015.76 413.769 2011.94 433.603 2004.29 452.096C1996.64 470.322 1987.05 484.929 1975.5 495.918C1964.11 506.639 1953.08 512 1942.44 512C1931.49 512 1921.6 507.444 1912.75 498.331C1904.05 488.95 1897.23 476.219 1892.28 460.137C1887.48 444.055 1885.08 426.232 1885.08 406.666C1885.08 385.492 1888.91 365.792 1896.55 347.566C1904.2 329.072 1913.72 314.465 1925.12 303.744C1936.66 292.755 1947.76 287.26 1958.41 287.26ZM1945.36 333.897C1939.06 333.897 1934.27 338.453 1930.97 347.566C1927.82 356.411 1926.24 369.678 1926.24 387.368C1926.24 409.882 1928.79 428.644 1933.89 443.653C1938.99 458.395 1946.19 465.766 1955.48 465.766C1961.63 465.766 1966.28 461.209 1969.43 452.096C1972.73 442.715 1974.38 429.18 1974.38 411.49C1974.38 388.976 1971.83 370.482 1966.73 356.009C1961.63 341.268 1954.51 333.897 1945.36 333.897Z" fill="white"/>
<path d="M2103.58 507.98H2032.5V485.465L2052.52 455.313V235.398L2032.5 211.677V189.163L2076.59 157H2090.76V469.786L2111 481.847L2103.58 507.98Z" fill="white"/>
</g>
<defs>
<filter id="filter0_d_1672_3" x="605" y="157" width="1510" height="363" filterUnits="userSpaceOnUse" color-interpolation-filters="sRGB">
<feFlood flood-opacity="0" result="BackgroundImageFix"/>
<feColorMatrix in="SourceAlpha" type="matrix" values="0 0 0 0 0 0 0 0 0 0 0 0 0 0 0 0 0 0 127 0" result="hardAlpha"/>
<feOffset dy="4"/>
<feGaussianBlur stdDeviation="2"/>
<feComposite in2="hardAlpha" operator="out"/>
<feColorMatrix type="matrix" values="0 0 0 0 0 0 0 0 0 0 0 0 0 0 0 0 0 0 0.25 0"/>
<feBlend mode="normal" in2="BackgroundImageFix" result="effect1_dropShadow_1672_3"/>
<feBlend mode="normal" in="SourceGraphic" in2="effect1_dropShadow_1672_3" result="shape"/>
</filter>
<linearGradient id="paint0_linear_1672_3" x1="112.5" y1="116.073" x2="315.5" y2="343.573" gradientUnits="userSpaceOnUse">
<stop offset="0.839326" stop-color="#BF8108"/>
<stop offset="0.9375" stop-color="#111CD6" stop-opacity="0.77"/>
</linearGradient>
</defs>
</svg>
