<svg width="230" height="202" viewBox="0 0 230 202" fill="none" xmlns="http://www.w3.org/2000/svg">
<g clip-path="url(#clip0_4946_101518)">
<path opacity="0.12" fill-rule="evenodd" clip-rule="evenodd" d="M185.983 20.143L33.8506 72.5264C22.4433 76.4542 16.3374 88.9955 20.2952 100.49L58.8551 212.476C62.8129 223.97 75.3456 230.094 86.7528 226.166L238.885 173.782C250.272 169.862 256.397 157.309 252.441 145.819L213.881 33.8329C209.924 22.3428 197.369 16.2223 185.983 20.143ZM240.888 115.129L177.925 136.808C164.16 141.548 149.15 134.163 144.415 120.412C139.68 106.66 146.961 91.5994 160.726 86.8596L223.689 65.1799L240.888 115.129ZM223.358 64.2192L160.396 85.8989C146.214 90.7818 138.603 106.395 143.525 120.69C148.455 135.006 164.054 142.603 178.239 137.719L241.201 116.039L251.56 146.122C255.329 157.069 249.534 169.069 238.563 172.847L86.4306 225.23C75.4601 229.007 63.5056 223.12 59.7361 212.172L21.1763 100.186C17.4069 89.2392 23.2022 77.2395 34.1727 73.4621L186.305 21.0787C197.276 17.3012 209.23 23.1891 213 34.1363L223.358 64.2192ZM167.191 119.504C163.561 120.754 159.446 118.895 158.135 115.087C156.866 111.401 158.885 107.339 162.595 106.016C166.214 104.795 170.302 106.654 171.608 110.447C172.919 114.256 170.821 118.254 167.191 119.504ZM157.19 115.412C155.735 111.188 158.054 106.568 162.267 105.071C166.392 103.675 171.061 105.789 172.553 110.122C174.05 114.469 171.652 119.025 167.517 120.449C163.381 121.873 158.687 119.76 157.19 115.412Z" fill="white"/>
</g>
<defs>
<clipPath id="clip0_4946_101518">
<rect width="230" height="202" fill="white"/>
</clipPath>
</defs>
</svg>
