<svg width="44" height="22" viewBox="0 0 44 22" fill="none" xmlns="http://www.w3.org/2000/svg">
<path d="M9.70881 15.5V6.77273H12.9048C13.5241 6.77273 14.0369 6.875 14.4432 7.07955C14.8494 7.28125 15.1534 7.5554 15.3551 7.90199C15.5568 8.24574 15.6577 8.63352 15.6577 9.06534C15.6577 9.42898 15.5909 9.7358 15.4574 9.9858C15.3239 10.233 15.1449 10.4318 14.9205 10.5824C14.6989 10.7301 14.4545 10.8381 14.1875 10.9062V10.9915C14.4773 11.0057 14.7599 11.0994 15.0355 11.2727C15.3139 11.4432 15.544 11.6861 15.7259 12.0014C15.9077 12.3168 15.9986 12.7003 15.9986 13.152C15.9986 13.598 15.8935 13.9986 15.6832 14.3537C15.4759 14.706 15.1548 14.9858 14.7202 15.1932C14.2855 15.3977 13.7301 15.5 13.054 15.5H9.70881ZM11.0256 14.3707H12.9261C13.5568 14.3707 14.0085 14.2486 14.2812 14.0043C14.554 13.7599 14.6903 13.4545 14.6903 13.0881C14.6903 12.8125 14.6207 12.5597 14.4815 12.3295C14.3423 12.0994 14.1435 11.9162 13.8849 11.7798C13.6293 11.6435 13.3253 11.5753 12.973 11.5753H11.0256V14.3707ZM11.0256 10.5483H12.7898C13.0852 10.5483 13.3509 10.4915 13.5866 10.3778C13.8253 10.2642 14.0142 10.1051 14.1534 9.90057C14.2955 9.69318 14.3665 9.44886 14.3665 9.16761C14.3665 8.80682 14.2401 8.50426 13.9872 8.25994C13.7344 8.01562 13.3466 7.89347 12.8239 7.89347H11.0256V10.5483ZM20.2791 15.6321C19.6342 15.6321 19.0788 15.4943 18.6129 15.2188C18.1499 14.9403 17.7919 14.5497 17.5391 14.0469C17.2891 13.5412 17.1641 12.9489 17.1641 12.2699C17.1641 11.5994 17.2891 11.0085 17.5391 10.4972C17.7919 9.9858 18.1442 9.58665 18.5959 9.29972C19.0504 9.01278 19.5817 8.86932 20.1896 8.86932C20.5589 8.86932 20.9169 8.9304 21.2635 9.05256C21.6101 9.17472 21.9212 9.36648 22.1967 9.62784C22.4723 9.8892 22.6896 10.2287 22.8487 10.6463C23.0078 11.0611 23.0874 11.5653 23.0874 12.1591V12.6108H17.8842V11.6562H21.8388C21.8388 11.321 21.7706 11.0241 21.6342 10.7656C21.4979 10.5043 21.3061 10.2983 21.0589 10.1477C20.8146 9.99716 20.5277 9.92188 20.1982 9.92188C19.8402 9.92188 19.5277 10.0099 19.2607 10.1861C18.9964 10.3594 18.7919 10.5866 18.647 10.8679C18.505 11.1463 18.4339 11.4489 18.4339 11.7756V12.5213C18.4339 12.9588 18.5107 13.331 18.6641 13.6378C18.8203 13.9446 19.0376 14.179 19.3161 14.3409C19.5945 14.5 19.9197 14.5795 20.2919 14.5795C20.5334 14.5795 20.7536 14.5455 20.9524 14.4773C21.1513 14.4062 21.3232 14.3011 21.468 14.1619C21.6129 14.0227 21.7237 13.8509 21.8004 13.6463L23.0064 13.8636C22.9098 14.2187 22.7365 14.5298 22.4865 14.7969C22.2393 15.0611 21.9283 15.267 21.5533 15.4148C21.1811 15.5597 20.7564 15.6321 20.2791 15.6321ZM27.5565 8.95455V9.97727H23.9812V8.95455H27.5565ZM24.94 7.38636H26.2141V13.5781C26.2141 13.8253 26.2511 14.0114 26.3249 14.1364C26.3988 14.2585 26.494 14.3423 26.6104 14.3878C26.7298 14.4304 26.859 14.4517 26.9982 14.4517C27.1005 14.4517 27.19 14.4446 27.2667 14.4304C27.3434 14.4162 27.4031 14.4048 27.4457 14.3963L27.6758 15.4489C27.6019 15.4773 27.4968 15.5057 27.3604 15.5341C27.2241 15.5653 27.0536 15.5824 26.8491 15.5852C26.5138 15.5909 26.2013 15.5312 25.9116 15.4062C25.6218 15.2812 25.3874 15.0881 25.2085 14.8267C25.0295 14.5653 24.94 14.2372 24.94 13.8423V7.38636ZM30.8707 15.6449C30.456 15.6449 30.081 15.5682 29.7457 15.4148C29.4105 15.2585 29.1449 15.0327 28.9489 14.7372C28.7557 14.4418 28.6591 14.0795 28.6591 13.6506C28.6591 13.2812 28.7301 12.9773 28.8722 12.7386C29.0142 12.5 29.206 12.3111 29.4474 12.1719C29.6889 12.0327 29.9588 11.9276 30.2571 11.8565C30.5554 11.7855 30.8594 11.7315 31.169 11.6946C31.5611 11.6491 31.8793 11.6122 32.1236 11.5838C32.3679 11.5526 32.5455 11.5028 32.6562 11.4347C32.767 11.3665 32.8224 11.2557 32.8224 11.1023V11.0724C32.8224 10.7003 32.7173 10.4119 32.5071 10.2074C32.2997 10.0028 31.9901 9.90057 31.5781 9.90057C31.1491 9.90057 30.8111 9.99574 30.5639 10.1861C30.3196 10.3736 30.1506 10.5824 30.0568 10.8125L28.8594 10.5398C29.0014 10.142 29.2088 9.82102 29.4815 9.5767C29.7571 9.32955 30.0739 9.15057 30.4318 9.03977C30.7898 8.92614 31.1662 8.86932 31.5611 8.86932C31.8224 8.86932 32.0994 8.90057 32.392 8.96307C32.6875 9.02273 32.9631 9.13352 33.2188 9.29545C33.4773 9.45739 33.6889 9.68892 33.8537 9.99006C34.0185 10.2884 34.1009 10.6761 34.1009 11.1534V15.5H32.8565V14.6051H32.8054C32.723 14.7699 32.5994 14.9318 32.4347 15.0909C32.2699 15.25 32.0582 15.3821 31.7997 15.4872C31.5412 15.5923 31.2315 15.6449 30.8707 15.6449ZM31.1477 14.6222C31.5 14.6222 31.8011 14.5526 32.0511 14.4134C32.304 14.2741 32.4957 14.0923 32.6264 13.8679C32.7599 13.6406 32.8267 13.3977 32.8267 13.1392V12.2955C32.7813 12.3409 32.6932 12.3835 32.5625 12.4233C32.4347 12.4602 32.2884 12.4929 32.1236 12.5213C31.9588 12.5469 31.7983 12.571 31.642 12.5938C31.4858 12.6136 31.3551 12.6307 31.25 12.6449C31.0028 12.6761 30.777 12.7287 30.5724 12.8026C30.3707 12.8764 30.2088 12.983 30.0866 13.1222C29.9673 13.2585 29.9077 13.4403 29.9077 13.6676C29.9077 13.983 30.0241 14.2216 30.2571 14.3835C30.4901 14.5426 30.7869 14.6222 31.1477 14.6222Z" fill="#151515" fill-opacity="0.5"/>
<rect x="1.25" y="1" width="42" height="20" rx="10" stroke="#151515" stroke-opacity="0.12"/>
</svg>
