<svg width="40" height="40" viewBox="0 0 40 40" fill="none" xmlns="http://www.w3.org/2000/svg">
<g id="&#232;&#180;&#167;&#229;&#184;&#129;">
<rect width="40" height="40" rx="20" fill="#50AF95"/>
<path id="Vector" fill-rule="evenodd" clip-rule="evenodd" d="M22.6198 21.6343C22.4757 21.6451 21.7312 21.6894 20.0705 21.6894C18.7496 21.6894 17.8118 21.6499 17.4827 21.6343C12.3781 21.4105 8.56788 20.525 8.56788 19.4647C8.56788 18.4044 12.3781 17.52 17.4827 17.2926V20.7523C17.8166 20.7763 18.7724 20.8325 20.0933 20.8325C21.6784 20.8325 22.4721 20.7667 22.615 20.7535V17.295C27.7089 17.5212 31.5106 18.4067 31.5106 19.4647C31.5106 20.5226 27.7101 21.4081 22.615 21.6331L22.6198 21.6343ZM22.6198 16.9372V13.8412H29.7286V9.12012H10.3739V13.8412H17.4815V16.936C11.7044 17.2004 7.35986 18.3409 7.35986 19.7076C7.35986 21.0743 11.7044 22.2135 17.4815 22.4792V32.4001H22.6186V22.4756C28.3825 22.2112 32.7199 21.0719 32.7199 19.7064C32.7199 18.3409 28.3861 17.2016 22.6186 16.936L22.6198 16.9372Z" fill="white"/>
</g>
</svg>
