<svg width="40" height="41" viewBox="0 0 40 41" fill="none" xmlns="http://www.w3.org/2000/svg">
<g id="&#230;&#157;&#160;&#230;&#157;&#134;">
<path id="Union" fill-rule="evenodd" clip-rule="evenodd" d="M31.0621 17.4015C34.3486 17.4015 37.0129 14.7373 37.0129 11.4508C37.0129 8.16425 34.3486 5.5 31.0621 5.5C27.7756 5.5 25.1114 8.16425 25.1114 11.4508C25.1114 14.7373 27.7756 17.4015 31.0621 17.4015ZM9.99984 19.6667C9.99984 21.9679 8.13436 23.8333 5.83317 23.8333C3.53198 23.8333 1.6665 21.9679 1.6665 19.6667C1.6665 17.3655 3.53198 15.5 5.83317 15.5C8.13436 15.5 9.99984 17.3655 9.99984 19.6667ZM2.14635 28.5894C1.87841 28.6562 1.71536 28.9276 1.78216 29.1955C1.84897 29.4635 2.12033 29.6265 2.38827 29.5597L38.3054 20.6046C38.5733 20.5378 38.7364 20.2664 38.6696 19.9985C38.6028 19.7305 38.3314 19.5675 38.0635 19.6343L2.14635 28.5894ZM21.2035 29.2415C21.005 29.0228 20.6613 29.0228 20.4629 29.2415L13.653 36.7474C13.3615 37.0687 13.5895 37.5833 14.0234 37.5833H27.643C28.0768 37.5833 28.3048 37.0687 28.0133 36.7474L21.2035 29.2415Z" fill="url(#paint0_linear_2894_19568)"/>
</g>
<defs>
<linearGradient id="paint0_linear_2894_19568" x1="44.4456" y1="3.83332" x2="17.3245" y2="-3.25621" gradientUnits="userSpaceOnUse">
<stop stop-color="#39FFC4"/>
<stop offset="1" stop-color="#399BFF"/>
</linearGradient>
</defs>
</svg>
