<svg width="24" height="24" viewBox="0 0 24 24" fill="none" xmlns="http://www.w3.org/2000/svg">
<path fill-rule="evenodd" clip-rule="evenodd" d="M17.9333 11.0879L17.9213 8.51161H17.9307L15.7424 7.22346L11.9926 9.43438L8.26553 7.22346L6.0786 8.51161V11.0879L9.82837 13.2882V17.6993L12.006 18.9755L14.1835 17.6993V13.2882L17.9333 11.0879ZM11.994 0.624023L6.07727 4.11243L8.25486 5.40058L11.994 3.18966L15.7437 5.40058L17.9213 4.11243L11.994 0.624023ZM4.51576 16.4005L4.50376 12L2.32751 10.7132V17.7007L8.25486 21.1771V18.6008L4.51576 16.4005ZM4.50376 10.1638V7.59951L6.69201 6.31136L4.50376 5.02321L2.32617 6.31136V8.87566L4.50376 10.1638ZM11.994 5.02321L9.81638 6.31136L11.994 7.59951L14.1822 6.31136L11.994 5.02321ZM8.25486 14.2003L6.07727 12.9121V15.4884L8.25486 16.7646V14.2003ZM11.994 20.8117L9.81637 19.5236V22.0879L11.994 23.376L14.1822 22.0879V19.5236L11.994 20.8117ZM19.4828 5.02321L17.3052 6.31136L19.4828 7.59951V10.1638L21.6711 8.87566V6.31136L19.4828 5.02321ZM21.6724 10.7119L19.4948 12L19.4828 16.4005L15.7451 18.5995V21.1758L21.6724 17.6994V10.7119ZM17.9213 15.4884L15.7437 16.7646V14.2003L17.9213 12.9121V15.4884Z" fill="#A5AEBD"/>
</svg>
