<svg width="400" height="300" viewBox="0 0 400 300" fill="none" xmlns="http://www.w3.org/2000/svg">
<mask id="mask0_5002_190530" style="mask-type:alpha" maskUnits="userSpaceOnUse" x="6" y="21" width="393" height="273">
<rect x="6" y="21" width="393" height="273" fill="url(#paint0_linear_5002_190530)"/>
</mask>
<g mask="url(#mask0_5002_190530)">
<path d="M391.95 25.0015C388 43 305.5 297 8 273V297H391.95C391.95 297 392.063 24.2737 391.95 25.0015Z" fill="url(#paint1_linear_5002_190530)"/>
<path d="M9 274C326 290.5 391.5 24 391.5 24" stroke="#90FF00" stroke-width="2" stroke-linecap="round"/>
<circle cx="168.563" cy="180.986" r="50" transform="rotate(6 168.563 180.986)" fill="#90FF00" fill-opacity="0.07"/>
<circle cx="168.563" cy="180.986" r="49.3236" transform="rotate(6 168.563 180.986)" stroke="#90FF00" stroke-opacity="0.5" stroke-width="1.35281"/>
<path fill-rule="evenodd" clip-rule="evenodd" d="M173.395 165.496L189.439 167.183L190.037 161.487L150.483 157.329L149.884 163.025L167.699 164.898L166.606 175.298C152.554 174.114 141.146 176.274 140.72 180.331C140.274 184.577 152.033 189.294 166.984 190.865C181.936 192.437 194.419 190.268 194.865 186.021C195.274 182.131 185.442 177.847 172.297 175.947L173.395 165.496ZM166.426 177.007L165.59 184.96L171.286 185.559L172.117 177.657C177.955 178.505 183.08 179.826 186.867 181.345C189.163 182.266 190.873 183.223 191.95 184.123C193.085 185.072 193.176 185.652 193.156 185.842C193.136 186.032 192.927 186.58 191.619 187.272C190.378 187.929 188.507 188.509 186.07 188.932C181.221 189.775 174.528 189.931 167.164 189.157C159.8 188.383 153.285 186.839 148.718 185.007C146.422 184.086 144.712 183.129 143.635 182.229C142.5 181.28 142.409 180.7 142.429 180.51C142.449 180.32 142.658 179.772 143.966 179.08C145.207 178.423 147.078 177.843 149.515 177.419C153.922 176.654 159.853 176.455 166.426 177.007ZM163.311 206.636L164.991 190.656L170.687 191.255L169.007 207.235L163.311 206.636Z" fill="#90FF00"/>
<g opacity="0.7">
<circle cx="229.924" cy="105.5" r="32.5" transform="rotate(10 229.924 105.5)" fill="#389AFF" fill-opacity="0.05"/>
<circle cx="229.924" cy="105.5" r="32" transform="rotate(10 229.924 105.5)" stroke="#389AFF" stroke-opacity="0.5"/>
<path fill-rule="evenodd" clip-rule="evenodd" d="M233.387 85.0003L232.387 90.6703C232.426 90.6769 232.465 90.6836 232.503 90.6904C236.765 91.4419 239.712 93.3385 241.79 95.4465L240.21 97.1727C238.336 95.283 235.696 93.6024 232.082 92.9652C227.663 92.186 224.062 93.6572 223.456 97.0942C222.975 99.8242 224.703 101.85 229.304 103.208L232.25 104.072C237.043 105.484 240.259 108.036 239.452 112.612C238.521 117.894 233.287 119.725 227.436 118.755L226.59 123.553L224.408 123.168L225.273 118.258C221.927 117.271 218.956 115.381 217.198 113.406L218.85 111.733C220.504 113.605 223.809 115.767 227.619 116.439C232.274 117.26 236.269 116.081 236.923 112.369C237.45 109.383 235.31 107.507 230.824 106.19L227.763 105.286C222.836 103.83 220.19 101.034 220.934 96.8115C221.703 92.4535 225.523 90.3263 230.176 90.4507L231.205 84.6155L233.387 85.0003Z" fill="#389AFF"/>
</g>
<g opacity="0.6">
<circle cx="179.999" cy="57.2804" r="24.555" transform="rotate(-11 179.999 57.2804)" fill="#FF9600" fill-opacity="0.05"/>
<circle cx="179.999" cy="57.2804" r="24.055" transform="rotate(-11 179.999 57.2804)" stroke="#FF9600" stroke-opacity="0.5"/>
<path fill-rule="evenodd" clip-rule="evenodd" d="M171.446 44.4262C171.717 44.3736 171.979 44.5506 172.032 44.8217L172.621 47.8528L176.123 47.1168L175.544 44.139C175.492 43.8679 175.669 43.6054 175.94 43.5527C176.211 43.5001 176.473 43.6771 176.526 43.9482L177.102 46.9111L180.396 46.2188C183.375 45.5927 186.29 47.527 186.871 50.5154C187.242 52.4237 186.569 54.2953 185.247 55.5362C188.022 55.288 190.584 57.175 191.126 59.9627C191.711 62.9706 189.723 65.8757 186.707 66.4201L181.091 67.4339L181.67 70.4136C181.723 70.6846 181.546 70.9471 181.275 70.9998C181.004 71.0525 180.741 70.8755 180.689 70.6044L180.107 67.6116L176.585 68.2473L177.176 71.2872C177.229 71.5582 177.052 71.8207 176.781 71.8734C176.51 71.9261 176.247 71.749 176.195 71.478L175.601 68.425L172.832 68.9248C172.561 68.9739 172.301 68.7933 172.252 68.5216C172.202 68.2498 172.383 67.9898 172.655 67.9407L175.41 67.4433L171.833 49.0402L169.094 49.6159C168.823 49.6727 168.558 49.4997 168.502 49.2294C168.445 48.9592 168.618 48.6941 168.888 48.6373L171.642 48.0585L171.05 45.0125C170.998 44.7414 171.175 44.4789 171.446 44.4262ZM180.548 66.5157C180.501 66.5112 180.453 66.5133 180.405 66.5227C180.361 66.5313 180.319 66.5453 180.281 66.564L176.395 67.2656L174.699 58.5432L178.19 57.8177L184.923 56.5884C187.346 56.146 189.674 57.7356 190.144 60.1535C190.623 62.6141 188.996 64.9906 186.53 65.436L180.548 66.5157ZM172.812 48.8345L176.631 48.032C176.688 48.0419 176.749 48.0417 176.81 48.0298C176.876 48.0169 176.937 47.9915 176.99 47.9565L180.602 47.1975C183.035 46.6862 185.415 48.2657 185.89 50.7062C186.355 53.0987 184.81 55.4206 182.424 55.9165L177.999 56.8361L174.846 57.4117C174.745 57.4302 174.656 57.4781 174.587 57.545L174.508 57.5614L172.812 48.8345Z" fill="#FF9600"/>
</g>
</g>
<defs>
<linearGradient id="paint0_linear_5002_190530" x1="389.5" y1="262.5" x2="18" y2="268" gradientUnits="userSpaceOnUse">
<stop stop-color="#D9D9D9" stop-opacity="0"/>
<stop offset="0.204724" stop-color="#D9D9D9"/>
<stop offset="0.569554" stop-color="#D9D9D9"/>
<stop offset="1" stop-color="#D9D9D9" stop-opacity="0"/>
</linearGradient>
<linearGradient id="paint1_linear_5002_190530" x1="187.293" y1="205.5" x2="187.293" y2="297" gradientUnits="userSpaceOnUse">
<stop stop-color="#90FF00" stop-opacity="0.3"/>
<stop offset="1" stop-color="#90FF00" stop-opacity="0"/>
</linearGradient>
</defs>
</svg>
