<svg width="24" height="24" viewBox="0 0 24 24" fill="none" xmlns="http://www.w3.org/2000/svg">
<path d="M6.17026 4.36976L12.0083 1L17.8464 4.36976L15.7 5.61464L12.0083 3.48976L8.31661 5.61464L6.17026 4.36976ZM17.8464 8.61951L15.7 7.37464L12.0083 9.49952L8.31661 7.37464L6.17026 8.61951V11.1093L9.86196 13.2341V17.4839L12.0083 18.7288L14.1547 17.4839V13.2341L17.8464 11.1093V8.61951ZM17.8464 15.359V12.8693L15.7 14.1141V16.6039L17.8464 15.359ZM19.3702 16.239L15.6786 18.3639V20.8536L21.5166 17.4839V10.7444L19.3702 11.9893V16.239ZM17.224 6.49464L19.3702 7.73951V10.2293L21.5166 8.98439V6.49464L19.3702 5.24976L17.224 6.49464ZM9.86196 19.2654V21.7552L12.0083 23L14.1547 21.7552V19.2654L12.0083 20.5102L9.86196 19.2654ZM6.17026 15.359L8.31661 16.6039V14.1141L6.17026 12.8693V15.359ZM9.86196 6.49464L12.0083 7.73951L14.1547 6.49464L12.0083 5.24976L9.86196 6.49464ZM4.64634 7.73951L6.79269 6.49464L4.64634 5.24976L2.5 6.49464V8.98439L4.64634 10.2293V7.73951ZM4.64634 11.9893L2.5 10.7444V17.4839L8.33804 20.8536V18.3639L4.64634 16.239V11.9893Z" fill="#F0B90B"/>
</svg>
