<svg width="500" height="500" viewBox="0 0 500 500" fill="none" xmlns="http://www.w3.org/2000/svg">
<rect width="500" height="500" rx="250" fill="#3468D1"/>
<g clip-path="url(#clip0_2601_62236)">
<path d="M165.8 249C165 262.9 175.7 274.8 189.6 275.6C190.1 275.6 190.6 275.6 191.1 275.6C205.1 275.6 216.4 264.3 216.3 250.3C216.3 236.3 205 225 191 225.1C177.6 225.1 166.5 235.6 165.8 249Z" fill="white"/>
<path d="M71.6 242.5C67.1 242.2 63.2 245.7 63 250.2C62.8 254.7 66.2 258.6 70.7 258.8C75.2 259.1 79 255.6 79.3 251.1C79.6 246.6 76.1 242.8 71.6 242.5Z" fill="white"/>
<path d="M164.2 102.4C168.2 100.4 169.8 95.4 167.8 91.4C165.8 87.4 160.8 85.8 156.8 87.8C152.8 89.8 151.2 94.7 153.2 98.7C155.2 102.8 160.1 104.5 164.2 102.4Z" fill="white"/>
<path d="M189.8 147.1C196 144 198.5 136.4 195.4 130.2C192.3 124 184.7 121.5 178.5 124.6C172.3 127.7 169.8 135.3 172.9 141.5C176 147.7 183.6 150.2 189.8 147.1Z" fill="white"/>
<path d="M103.6 177.8C108.4 180.9 114.8 179.6 118 174.8C121.1 170 119.8 163.6 115 160.4C110.2 157.3 103.8 158.6 100.6 163.4C97.4 168.2 98.8 174.7 103.6 177.8Z" fill="white"/>
<path d="M118.9 238C111.9 237.6 106 242.9 105.6 249.9C105.2 256.9 110.5 262.8 117.5 263.2C124.5 263.6 130.4 258.3 130.8 251.3C131.2 244.4 125.9 238.4 118.9 238Z" fill="white"/>
<path d="M105 322.7C99.9 325.3 97.8 331.5 100.4 336.7C103 341.8 109.2 343.9 114.4 341.3C119.5 338.7 121.6 332.5 119 327.3C116.4 322.2 110.1 320.1 105 322.7Z" fill="white"/>
<path d="M154 211.9C160.9 216.4 170.1 214.5 174.5 207.6C179 200.7 177.1 191.5 170.2 187.1C163.3 182.6 154.1 184.5 149.7 191.4C145.2 198.2 147.1 207.4 154 211.9Z" fill="white"/>
<path d="M309.5 146.1C315.3 149.9 323.2 148.3 327 142.5C330.8 136.7 329.2 128.8 323.4 125C317.6 121.2 309.7 122.8 305.9 128.6C302 134.5 303.6 142.3 309.5 146.1Z" fill="white"/>
<path d="M335.3 101.6C339.1 104.1 344.1 103 346.6 99.2C349.1 95.4 348 90.4 344.2 87.9C340.4 85.4 335.4 86.5 332.9 90.2C330.5 94 331.6 99.1 335.3 101.6Z" fill="white"/>
<path d="M311.4 224.9C297.5 224.1 285.5 234.8 284.8 248.7C284 262.6 294.7 274.6 308.6 275.3C309.1 275.3 309.6 275.3 310 275.3C323.9 275.3 335.2 264 335.2 250C335.3 236.7 324.8 225.6 311.4 224.9Z" fill="white"/>
<path d="M198.1 210.1C202.4 218.6 211.1 224 220.7 224C234.6 224 245.9 212.7 245.9 198.7C245.9 194.8 245 190.9 243.2 187.3C236.9 174.8 221.7 169.8 209.3 176.1C196.8 182.5 191.8 197.7 198.1 210.1Z" fill="white"/>
<path d="M396 177.8C401.1 175.2 403.1 168.9 400.5 163.8C397.9 158.7 391.6 156.7 386.5 159.3C381.4 161.9 379.4 168.1 381.9 173.2C384.6 178.3 390.8 180.4 396 177.8Z" fill="white"/>
<path d="M332 185.8C324.7 189.5 321.7 198.4 325.4 205.7C329.1 213 338 216 345.3 212.3C352.6 208.6 355.6 199.7 351.9 192.4C348.2 185.1 339.3 182.2 332 185.8Z" fill="white"/>
<path d="M249.5 97.8001C255.2 98.1001 260.1 93.7001 260.5 88.0001C260.9 82.3001 256.4 77.4001 250.7 77.0001C245 76.7001 240.1 81.0001 239.7 86.7001C239.4 92.5001 243.8 97.4001 249.5 97.8001Z" fill="white"/>
<path d="M249.4 163.1C257.6 163.6 264.6 157.3 265 149.1C265.5 140.9 259.2 133.9 251 133.5C242.8 133 235.8 139.3 235.4 147.5C235 155.7 241.2 162.7 249.4 163.1Z" fill="white"/>
<path d="M169 314.7C176.3 311 179.3 302.1 175.6 294.8C171.9 287.5 163 284.5 155.7 288.2C148.4 291.9 145.4 300.8 149.1 308.1C152.8 315.4 161.7 318.4 169 314.7Z" fill="white"/>
<path d="M259 184.8C251.4 196.5 254.6 212.1 266.3 219.7C278 227.3 293.6 224.1 301.2 212.4C308.8 200.7 305.6 185.1 293.9 177.5C289.8 174.8 285 173.4 280.1 173.4C271.6 173.4 263.7 177.7 259 184.8Z" fill="white"/>
<path d="M302.9 290.4C296.6 277.9 281.4 272.9 269 279.2C256.5 285.5 251.5 300.7 257.8 313.1C264.1 325.6 279.3 330.6 291.7 324.3C304.1 318.1 309.2 303.1 303 290.6C303 290.5 303 290.5 302.9 290.4Z" fill="white"/>
<path d="M347 288.6C340.1 284.1 330.9 286 326.5 292.9C322 299.8 323.9 309 330.8 313.4C337.7 317.9 346.9 316 351.3 309.1C355.8 302.3 353.9 293.1 347 288.6Z" fill="white"/>
<path d="M395.4 250.7C395.8 243.7 390.5 237.8 383.5 237.4C376.5 237 370.6 242.3 370.2 249.3C369.8 256.3 375.1 262.2 382.1 262.6C389 263 395 257.6 395.4 250.7Z" fill="white"/>
<path d="M430.3 241.7C425.8 241.4 421.9 244.9 421.7 249.4C421.5 253.9 424.9 257.8 429.4 258C433.9 258.3 437.7 254.8 438 250.3C438.2 245.8 434.8 242 430.3 241.7Z" fill="white"/>
<path d="M397.4 322.7C392.6 319.6 386.2 320.9 383 325.7C379.9 330.5 381.2 336.9 386 340.1C390.8 343.2 397.2 341.9 400.4 337.1C403.6 332.3 402.2 325.8 397.4 322.7Z" fill="white"/>
<path d="M165.6 398.9C161.8 396.4 156.8 397.5 154.3 401.2C151.8 405 152.9 410 156.6 412.5C160.4 415 165.4 413.9 167.9 410.2C170.5 406.5 169.4 401.4 165.6 398.9Z" fill="white"/>
<path d="M336.8 398.1C332.8 400.1 331.2 405.1 333.2 409.1C335.2 413.1 340.2 414.7 344.2 412.7C348.2 410.7 349.8 405.8 347.8 401.8C345.8 397.7 340.9 396 336.8 398.1Z" fill="white"/>
<path d="M242 315.7C249.6 304 246.4 288.4 234.7 280.7C223 273.1 207.4 276.3 199.7 288C192 299.7 195.3 315.3 207 323C211.1 325.7 215.9 327.1 220.8 327.1C229.4 327.2 237.3 322.9 242 315.7Z" fill="white"/>
<path d="M191.5 354.4C185.7 350.6 177.8 352.2 174 358C170.2 363.8 171.8 371.7 177.6 375.5C183.4 379.3 191.3 377.7 195.1 371.9C199 366.1 197.4 358.2 191.5 354.4Z" fill="white"/>
<path d="M250.4 402.7C244.7 402.4 239.8 406.8 239.4 412.5C239 418.2 243.5 423.1 249.2 423.5C254.9 423.8 259.8 419.5 260.2 413.8C260.5 408 256.1 403.1 250.4 402.7Z" fill="white"/>
<path d="M250.5 337.4C242.3 336.9 235.3 343.2 234.9 351.4C234.4 359.6 240.7 366.6 248.9 367C257.1 367.4 264.1 361.2 264.5 353C265 344.9 258.7 337.8 250.5 337.4Z" fill="white"/>
<path d="M311.2 353.4C305 356.6 302.5 364.2 305.7 370.4C308.9 376.6 316.5 379.1 322.7 375.9C328.9 372.8 331.4 365.2 328.3 359C325.1 352.8 317.5 350.2 311.2 353.4Z" fill="white"/>
</g>
<defs>
<clipPath id="clip0_2601_62236">
<rect width="375" height="346.5" fill="white" transform="translate(63 77)"/>
</clipPath>
</defs>
</svg>
