<svg width="500" height="500" viewBox="0 0 500 500" fill="none" xmlns="http://www.w3.org/2000/svg">
<g clip-path="url(#clip0_4352_97867)">
<rect width="500" height="500" rx="250" fill="#0AC18E"/>
<path d="M327.982 166.053C315.419 137.563 286.548 131.472 251.206 137.373L239.848 93.3374L213.071 100.254L224.239 144.162C217.195 145.939 209.962 147.462 202.792 149.492L191.624 105.837L164.848 112.754L176.206 156.789C170.431 158.439 122.145 170.812 122.145 170.812L129.505 199.492C129.505 199.492 149.175 193.972 148.985 194.416C159.898 191.561 165.038 197.018 167.449 202.157L198.668 322.842C199.048 326.332 198.414 332.297 190.926 334.327C191.371 334.581 171.447 339.34 171.447 339.34L174.365 372.779C174.365 372.779 222.208 360.533 228.49 358.947L239.975 403.49L266.751 396.573L255.266 351.713C262.627 350 269.797 348.223 276.777 346.383L288.198 390.99L314.975 384.073L303.49 339.594C344.733 329.568 373.858 303.553 367.893 263.769C364.086 239.784 337.881 220.114 316.117 217.893C329.505 206.028 336.294 188.705 327.982 166.053ZM315.102 271.066C320.431 310.469 265.673 315.292 247.589 320.051L231.853 261.104C250 256.345 306.091 236.358 315.102 271.066ZM282.107 190.799C287.754 225.825 240.926 229.886 225.825 233.756L211.485 180.266C226.65 176.523 270.622 158.375 282.107 190.799Z" fill="white"/>
</g>
<defs>
<clipPath id="clip0_4352_97867">
<rect width="500" height="500" rx="250" fill="white"/>
</clipPath>
</defs>
</svg>
