<svg width="500" height="500" viewBox="0 0 500 500" fill="none" xmlns="http://www.w3.org/2000/svg">
<rect width="500" height="500" rx="250" fill="#F0B90B"/>
<path d="M137.4 250L137.58 316.106L193.75 349.159V387.861L104.708 335.637V230.669L137.4 250ZM137.4 183.894V222.416L104.688 203.065V164.543L137.4 145.192L170.272 164.543L137.4 183.894ZM217.208 164.543L249.92 145.192L282.792 164.543L249.92 183.894L217.208 164.543Z" fill="white"/>
<path d="M161.038 302.404V263.702L193.75 283.053V321.575L161.038 302.404ZM217.207 363.021L249.92 382.372L282.792 363.021V401.543L249.92 420.894L217.207 401.543V363.021ZM329.707 164.543L362.42 145.192L395.292 164.543V203.065L362.42 222.416V183.894L329.707 164.543ZM362.42 316.106L362.6 250L395.312 230.649V335.617L306.27 387.841V349.139L362.42 316.106Z" fill="white"/>
<path d="M338.962 302.404L306.25 321.574V283.053L338.962 263.702V302.404Z" fill="white"/>
<path d="M338.962 197.596L339.143 236.298L282.812 269.351V335.617L250.1 354.788L217.388 335.617V269.351L161.058 236.298V197.596L193.91 178.245L249.9 211.458L306.23 178.245L339.103 197.596H338.962ZM161.038 131.51L249.92 79.1064L338.962 131.51L306.25 150.861L249.92 117.648L193.75 150.861L161.038 131.51Z" fill="white"/>
</svg>
