<svg width="500" height="500" viewBox="0 0 500 500" fill="none" xmlns="http://www.w3.org/2000/svg">
<rect width="500" height="500" rx="250" fill="#F7931A"/>
<path d="M360.211 214.381C365.187 181.111 339.857 163.228 305.222 151.298L316.458 106.231L289.024 99.3954L278.087 143.275C270.874 141.477 263.468 139.782 256.107 138.102L267.124 93.9319L239.708 87.0962L228.466 132.148C222.498 130.789 216.636 129.446 210.949 128.031L210.98 127.889L173.149 118.442L165.852 147.743C165.852 147.743 186.205 152.408 185.776 152.696C196.885 155.468 198.894 162.822 198.56 168.651L185.761 219.992C186.526 220.187 187.519 220.468 188.613 220.908C187.698 220.68 186.724 220.432 185.714 220.19L167.774 292.112C166.416 295.487 162.97 300.552 155.203 298.629C155.478 299.027 135.264 293.653 135.264 293.653L121.644 325.055L157.344 333.955C163.986 335.621 170.494 337.363 176.903 339.002L165.551 384.585L192.953 391.421L204.195 346.322C211.681 348.354 218.945 350.228 226.057 351.995L214.853 396.882L242.288 403.718L253.638 358.22C300.418 367.073 335.593 363.504 350.398 321.192C362.328 287.125 349.804 267.476 325.194 254.662C343.119 250.528 356.621 238.739 360.221 214.385L360.212 214.379L360.211 214.381ZM297.532 302.273C289.054 336.339 231.697 317.924 213.101 313.306L228.165 252.916C246.76 257.558 306.392 266.745 297.533 302.273H297.532ZM306.016 213.887C298.282 244.874 250.543 229.131 235.057 225.271L248.715 170.501C264.201 174.361 314.073 181.566 306.019 213.887H306.016Z" fill="white"/>
</svg>
