<svg width="500" height="500" viewBox="0 0 500 500" fill="none" xmlns="http://www.w3.org/2000/svg">
<g clip-path="url(#clip0_2601_62106)">
<rect width="500" height="500" rx="250" fill="white"/>
<g clip-path="url(#clip1_2601_62106)">
<path d="M250 515C396.355 515 515 396.355 515 250C515 103.645 396.355 -15 250 -15C103.645 -15 -15 103.645 -15 250C-15 396.355 103.645 515 250 515Z" fill="#988430"/>
<path d="M250 506.511C391.667 506.511 506.511 391.667 506.511 250C506.511 108.332 391.667 -6.51172 250 -6.51172C108.333 -6.51172 -6.51152 108.332 -6.51152 250C-6.51152 391.667 108.333 506.511 250 506.511Z" fill="#7A6A2A"/>
<path d="M250 501.107C388.683 501.107 501.107 388.683 501.107 250C501.107 111.317 388.683 -1.10693 250 -1.10693C111.317 -1.10693 -1.10693 111.317 -1.10693 250C-1.10693 388.683 111.317 501.107 250 501.107Z" fill="#BA9F33"/>
<path fill-rule="evenodd" clip-rule="evenodd" d="M100.862 221.7C99.3613 220.329 97.7755 218.955 96.317 217.584C94.8584 216.213 93.3603 214.839 91.8593 213.468L87.3988 209.228C86.6696 208.499 85.8979 207.857 85.1686 207.125C84.4393 206.484 83.5828 205.754 82.8535 205.11C76.9345 199.493 70.9816 193.877 65.1445 188.257C71.1907 193.789 77.1098 199.281 83.156 204.895L85.2562 206.998C85.9855 207.725 86.7572 208.369 87.4865 209.098L91.9441 213.214C93.4451 214.585 94.9036 215.959 96.4046 217.454C97.9055 218.949 99.3641 220.326 100.865 221.694L100.862 221.7ZM22.3064 220.852C22.3064 220.852 43.8314 223.079 54.3381 224.58C64.0704 225.954 94.5164 230.626 94.5164 230.626L22.3064 220.852ZM22.3064 220.852C28.3526 221.366 34.3988 222.008 40.4451 222.652C43.5318 222.952 46.4913 223.294 49.4508 223.593L53.9933 224.111C55.4942 224.323 56.9528 224.538 58.4538 224.752L76.4653 227.624L85.4682 229.125C88.4277 229.64 91.3873 230.199 94.474 230.714C91.5145 230.414 88.4277 229.985 85.4682 229.555L76.4653 228.269L58.4538 225.612C56.9528 225.397 55.4942 225.094 53.9933 224.882L49.448 224.36C46.4885 224.06 43.4018 223.63 40.4422 223.285C34.396 222.559 28.3498 221.784 22.3035 220.843L22.3064 220.852ZM92.3738 236.234C92.3738 236.234 69.3901 242.069 61.6281 244.299C53.9961 246.399 30.8825 253.432 30.8825 253.432L92.3709 236.237L92.3738 236.234Z" fill="#CFB66C"/>
<path fill-rule="evenodd" clip-rule="evenodd" d="M92.3709 236.234C87.2688 237.735 82.1949 239.194 77.0193 240.568L61.6677 244.683C56.5655 246.184 51.4917 247.643 46.4037 249.144L38.7717 251.244C36.2418 251.973 33.6695 252.615 31.0549 253.347C33.5819 252.499 36.157 251.631 38.6869 250.902L46.3189 248.46C51.421 246.871 56.4949 245.37 61.5829 243.784C66.7698 242.498 71.8748 241.125 77.0617 239.881C81.9914 238.637 87.1812 237.396 92.3709 236.237V236.234ZM34.0992 267.582C36.6262 266.638 65.7861 253.047 72.5616 249.873C75.9536 248.284 85.8131 244.785 85.8131 244.785L34.0992 267.582Z" fill="#CFB66C"/>
<path fill-rule="evenodd" clip-rule="evenodd" d="M34.0992 267.582C36.3266 266.734 38.4297 265.696 40.5723 264.71L46.9181 261.75L59.6551 255.619C63.8951 253.604 68.0164 251.379 72.3892 249.485C74.6195 248.544 76.8497 247.773 79.0771 247.043L82.4691 245.972C83.6252 245.672 84.6994 245.327 85.8611 245.028C81.6211 247.043 77.1578 248.759 72.9122 250.729C68.6722 252.832 64.3361 254.548 59.9604 256.433L47.0114 262.135C42.664 263.896 38.424 265.781 34.0964 267.582H34.0992ZM36.9259 279.454C36.9259 279.454 63.3382 263.975 72.4288 259C77.1889 256.343 92.5829 248.708 92.5829 248.708L36.9259 279.454Z" fill="#CFB66C"/>
<path fill-rule="evenodd" clip-rule="evenodd" d="M36.9287 279.459C41.3863 276.715 45.9316 273.928 50.4769 271.098L57.2609 266.98C59.5759 265.609 61.8062 264.323 64.1665 262.952C66.4815 261.578 68.7117 260.207 71.0692 258.921C72.1914 258.228 73.3673 257.626 74.5855 257.12L78.1867 255.32C82.9468 253.005 87.7069 250.644 92.7243 248.629C88.179 251.504 83.5037 253.949 78.8312 256.476C76.5162 257.762 74.1559 258.921 71.8409 260.207C69.5258 261.493 67.2956 262.867 64.9353 264.111C62.6203 265.481 60.39 266.768 58.0326 268.011L51.0422 271.827L36.9343 279.459H36.9287ZM92.3709 252.1C92.3709 252.1 75.948 264.707 70.631 268.738C65.3141 272.769 49.6628 284.089 49.6628 284.089L92.3709 252.1Z" fill="#CFB66C"/>
<path fill-rule="evenodd" clip-rule="evenodd" d="M186.623 353.77L178.22 337.861L183.107 317.964L217.968 304.501L203.131 274.058L210.463 243.312L224.229 215.78L266.768 209.093L298.025 179.291L365.52 184.393L378.769 256.561L353.255 347.424L338.721 394.465L279.802 396.696L252.445 377.743L220.413 364.361L186.623 353.77Z" fill="#E2CC85"/>
<path fill-rule="evenodd" clip-rule="evenodd" d="M289.966 353.255C289.966 353.255 281.817 356.986 267.918 356.127C263.896 350.725 235.725 348.195 235.725 348.195C235.725 348.195 232.209 347.124 225.99 349.696C219.732 352.24 213.813 351.927 208.281 353.298C202.749 354.668 197.257 347.466 193.017 345.965C188.777 344.379 183.155 340.563 183.155 340.563L171.283 339.404L147.443 329.327L109.568 291.594L99.2765 307.706L96.1021 327.646L107.553 351.274L138.383 379.359L198.501 394.623L234.134 384.125L278.773 365.257L289.966 353.252V353.255Z" fill="#F1D789"/>
<path fill-rule="evenodd" clip-rule="evenodd" d="M76.3776 219.899L84.0096 196.788L93.103 181.863L122.387 179.418L113.596 205.061L89.1146 248.629L99.2765 287.521L81.2678 296.524L75.7332 288.035L71.2755 268.568L70.9759 246.698L76.3776 219.899Z" fill="#F4ECB4"/>
<path fill-rule="evenodd" clip-rule="evenodd" d="M109.224 351.669L103.607 343.823C103.607 343.823 102.106 340.091 102.965 336.832C103.813 333.531 103.692 333.316 103.265 332.072C102.838 330.828 99.2341 326.54 99.4489 322.852C99.6609 319.12 99.1493 317.877 101.891 314.92C104.763 312.048 103.907 307.073 103.907 307.073L107.638 309.388L108.486 308.102C108.486 308.102 109.857 309.173 109.857 310.847C110.156 308.532 108.913 297.81 111.742 295.368C114.572 292.926 119.589 306.816 119.589 306.816L116.502 286.662L108.568 265.996L94.4598 247.128L93.6118 226.329V224.529C93.6118 224.529 87.1359 234.479 85.3354 242.337C84.0492 247.739 87.1359 254.299 86.4943 262.061C85.977 269.781 85.3354 269.179 87.2207 272.237C89.1061 275.296 93.6966 281.585 91.8961 286.13C90.3103 290.034 84.9057 287.289 84.9057 287.289C84.9057 287.289 83.8344 290.461 82.3758 291.62C81.8614 289.734 81.3045 288.533 80.2756 287.38C80.188 288.109 79.976 289.096 79.976 289.096C79.976 289.096 79.0319 286.136 78.0878 282.405C76.8045 277.433 75.4307 270.872 74.187 267.356C73.6725 269.371 72.3864 275.502 72.3864 275.502L73.1157 284.937L76.6321 297.886L80.0241 306.366L83.3256 316.743L86.1947 323.714L88.5097 329.031L90.5251 340.996L100.257 351.285L105.447 353.603L109.218 351.672L109.224 351.669Z" fill="#F3E19D"/>
<path fill-rule="evenodd" clip-rule="evenodd" d="M81.4798 201.031C81.4798 201.031 74.4894 212.903 72.4769 224.871C70.4643 236.839 68.6609 249.485 69.9329 265.778C71.219 282.204 73.6641 292.278 75.6371 299.483C79.0291 311.449 87.8144 328.087 87.8144 328.087L88.114 327.442C86.6373 324.643 85.4587 321.696 84.5976 318.651C83.4387 314.106 83.009 308.704 81.9377 306.259C80.9936 303.817 79.4078 301.714 78.6362 298.712C77.9069 295.84 77.7882 291.295 75.5494 287.908C74.6053 286.535 73.4464 282.933 73.1044 279.332C72.6747 273.928 73.3192 267.881 72.8048 262.909C71.8606 254.633 71.219 249.016 72.0755 244.683C72.9319 240.35 77.3953 228.048 80.1399 218.271C81.9405 212.009 80.8664 206.735 84.1679 201.288C87.4695 195.886 89.4877 191.126 90.2142 187.824C91.0622 184.823 81.4685 201.031 81.4685 201.031H81.4798Z" fill="#F2E8B0"/>
<path fill-rule="evenodd" clip-rule="evenodd" d="M114.628 196.271C114.628 196.271 111.027 197.345 109.311 199.23C107.595 201.031 106.866 202.532 104.551 205.576C102.236 208.62 102.106 211.108 100.218 214.924C98.3324 218.655 94.1715 224.271 93.6571 226.287C93.1426 228.302 92.2861 237.735 91.2148 242.195C90.2707 246.656 92.2861 252.145 92.2861 252.145L94.7284 251.628C94.7284 251.628 94.7284 254.802 97.1734 256.948C99.6157 259.048 100.045 249.827 100.045 249.827L109.178 218.997L122.941 209.649L124.442 202.102L114.622 196.271H114.628Z" fill="#F5EEC0"/>
<path fill-rule="evenodd" clip-rule="evenodd" d="M121.316 210.252C121.316 210.252 114.84 210.678 111.669 212.996C110.382 213.938 109.868 214.709 108.497 215.868C105.967 217.968 103.392 219.899 102.151 222.652C100.777 225.394 99.2765 229.555 98.2476 237.402C97.8179 240.703 97.8179 243.748 97.5183 246.407C97.0886 250.009 96.447 252.881 96.789 254.887C97.2187 259.003 101.464 261.149 101.877 265.821L110.668 261.363L118.944 228.73L136.526 217.706L126.576 206.557L121.305 210.232L121.316 210.252Z" fill="#E6DB9D"/>
<path fill-rule="evenodd" clip-rule="evenodd" d="M74.9389 429.999C74.9756 429.677 75.0124 429.355 75.0491 429.024C76.3324 418 76.5501 409.644 77.4914 404.412C78.8623 396.995 79.8064 394.236 79.5916 391.46C79.292 387.003 78.9499 383.744 79.3796 380.312C80.0212 375.767 84.4817 370.365 84.3545 366.634C84.2669 363.674 82.7659 361.746 81.4798 359.946C80.1937 358.145 79.1648 356.644 79.1648 356.644C79.1648 356.644 87.9557 350.598 87.8709 326.241C88.0504 326.291 88.2231 326.363 88.3853 326.456L92.7158 338.76L95.6753 342.361L107.039 363.544L121.661 377.74L143.271 392.274L156.822 407.021L158.193 446.343L140.484 469.327L137.583 474.579C114.542 463.011 93.4139 447.976 74.9361 429.996L74.9389 429.999Z" fill="#E5CB7A"/>
<path fill-rule="evenodd" clip-rule="evenodd" d="M129.036 467.616C129.036 467.616 129.335 462.729 133.366 459.555C134.011 460.626 134.437 461.658 134.31 462.427C135.039 461.143 140.142 452.909 151.677 450.764C163.213 448.664 166 440.26 166 440.26L190.482 418.006L218.483 392.235L252.53 380.27L268.441 376.366C268.441 376.366 268.741 377.525 268.142 380.097C271.098 379.885 277.659 378.384 284.477 375.982C287.222 374.91 289.797 374.481 291.168 375.897C293.183 377.782 293.483 382.243 293.61 384.9C296.911 384.17 300.727 380.999 303.786 381.299C308.676 381.813 313.006 387.56 317.981 387.56C324.542 387.56 327.499 383.529 332.089 380.354C334.834 378.469 338.777 376.114 341.007 374.523C346.324 370.619 402.583 353.425 402.583 353.425L422.308 354.711L425.482 375.894L423.786 431.268C423.577 431.469 423.368 431.678 423.156 431.879L333.471 478.72L209.155 497.777C181.307 493.227 154.434 483.984 129.68 470.44L129.044 467.614L129.036 467.616Z" fill="#D8C173"/>
<path fill-rule="evenodd" clip-rule="evenodd" d="M82.4776 437.043C84.2443 433.349 85.8328 430.26 86.1127 429.154C86.3332 431.382 86.7374 436.269 87.5515 441.464C85.8423 440.012 84.151 438.537 82.4776 437.041V437.043Z" fill="#F1D789"/>
<path fill-rule="evenodd" clip-rule="evenodd" d="M173.29 489.156L189.368 484.684L190.739 485.114C190.739 485.114 191.468 485.543 191.468 486.999C193.484 485.843 195.199 486.055 196.443 485.286C197.085 486.657 197.726 491.202 200.559 491.759C203.515 492.404 206.69 490.473 209.907 488.031C213.078 485.501 216.691 482.327 219.424 481.04C220.427 482.884 221.315 484.789 222.084 486.742C225.685 483.87 231.946 472.207 240.864 472.419C243.442 466.328 247.748 461.125 253.251 457.455C261.527 451.838 266.714 451.408 273.19 451.923C275.762 448.582 278.932 445.747 282.538 443.562C283.609 443.991 286.569 445.792 290.257 444.076C293.989 442.363 298.189 435.715 303.721 434.858C306.702 434.448 309.733 435.084 312.297 436.659C312.297 436.659 328.409 420.663 339.526 415.346C339.097 414.06 338.24 409.215 351.274 398.493C352.003 399.138 351.489 400.938 352.003 401.037C352.215 401.037 355.395 399.666 359.42 396.577C364.395 392.848 370.354 388.945 373.955 387.874C380.739 385.858 387.936 389.974 387.936 389.974C388.548 389.545 389.23 389.225 389.951 389.03C391.664 388.73 392.908 388.515 393.852 388.182C393.767 390.412 395.011 394.228 393.852 397.529C395.194 398.284 396.616 398.888 398.092 399.33C397.365 400.916 395.777 404.947 393.12 406.877C395.347 407.948 395.647 409.192 398.821 410.269C397.535 412.07 395.429 415.159 394.491 417.053C393.547 419.069 390.157 427.43 388.656 430.601C387.071 433.776 384.928 439.607 383.896 440.777C382.865 441.948 379.136 446.908 376.264 449.351C378.808 448.407 389.216 445.235 393.631 444.034C392.317 445.961 385.655 455.846 379.249 465.352C348.581 483.734 314.348 495.368 278.83 499.48C243.313 503.592 207.327 500.087 173.27 489.198L173.29 489.156Z" fill="#E0CD81"/>
<path fill-rule="evenodd" clip-rule="evenodd" d="M122.376 209.093C122.376 209.093 118.648 209.093 117.918 209.607C117.189 210.121 121.65 211.196 123.02 211.71C124.391 212.224 127.351 214.582 128.123 216.47C128.852 218.271 154.922 228.775 154.922 228.775L173.361 227.831L179.718 219.048L167.625 208.457L176.105 183.458L164.872 185.258L137.858 201.37L124.307 206.56L122.376 209.093Z" fill="#DFC57C"/>
<path fill-rule="evenodd" clip-rule="evenodd" d="M162.868 217.369C163.135 217.801 163.51 218.154 163.956 218.395C164.403 218.636 164.905 218.755 165.412 218.74C169.228 218.74 172.742 219.684 174.2 221.612C176.645 224.701 183.421 234.564 183.421 234.564L199.629 240.395L200.675 221.309L182.966 209.005L162.811 216.422V217.366H162.857L162.868 217.369Z" fill="#E5CC7C"/>
<path fill-rule="evenodd" clip-rule="evenodd" d="M159.688 224.444C159.688 224.444 162.645 224.659 166.376 223.285C170.107 221.911 176.238 218.955 178.898 220.114C182.626 221.699 181.855 226.674 185.888 231.138C188.331 233.882 192.791 233.798 195.321 236.757C197.851 239.717 206.554 238.343 206.554 238.343L209.856 256.151L196.607 273.133L192.274 294.229H174.358L157.992 287.736L149.93 268.232L153.961 248.508L159.688 224.444Z" fill="#D2C281"/>
<path fill-rule="evenodd" clip-rule="evenodd" d="M194.343 225.301C194.787 225.437 195.249 225.51 195.714 225.515C195.199 225.945 194.125 226.886 194.555 229.331C194.985 231.776 196.356 234.863 195.199 236.749C196.122 237.758 196.811 238.958 197.215 240.265C197.944 242.368 198.159 244.296 202.916 244.598C202.23 245.021 201.597 245.525 201.031 246.099C201.031 246.099 204.332 248.971 206.006 251.628C207.719 251.555 212.264 250.141 212.264 250.141L213.208 250.786L215.224 249.938C215.224 249.938 213.338 249.208 214.709 244.621C215.995 240.59 217.154 240.805 217.253 240.505C217.352 240.206 218.197 235.96 218.197 234.244C218.839 232.017 219.353 225.241 219.353 225.241L217.982 210.277L210.266 205.601L203.99 199.544L198.071 210.692L194.173 214.579L193.874 224.226L194.343 225.301Z" fill="#E2C270"/>
<path fill-rule="evenodd" clip-rule="evenodd" d="M212.908 212.781C212.908 212.781 214.279 216.682 214.797 219.684C214.979 219.101 215.08 218.495 215.096 217.884C215.096 217.884 216.168 223.803 216.38 226.248C216.809 226.16 217.228 226.033 217.324 226.46C217.42 226.886 218.398 231.649 218.172 234.306C219.957 231.361 222.428 228.89 225.374 227.104C227.09 226.03 229.105 224.874 231.208 224.786C234.51 224.701 236.91 226.889 240.856 226.889C250.373 226.889 258.994 219.899 265.34 217.756C270.013 216.168 274.044 215.012 276.873 212.437C278.247 211.28 280.692 208.708 282.919 204.889C285.879 199.801 288.966 195.372 292.055 194.815C290.657 195.072 289.235 195.172 287.815 195.115C287.815 195.115 288.759 194.171 290.359 192.884C291.959 191.598 293.876 190.013 296.617 190.013C301.508 190.013 303.95 190.739 306.694 190.739C309.439 190.654 311.025 190.013 311.025 190.013C311.025 190.013 313.9 192.028 320.373 192.028C326.849 192.113 331.179 192.67 334.568 192.972C337.957 193.275 349.318 192.028 352.577 192.124C354.702 192.206 356.788 192.717 358.711 193.625L348.204 163.097L310.462 130.11L287.993 146.018L253.429 180.58L219.984 192.972L212.993 200.819V212.781H212.908Z" fill="#CCB360"/>
<path fill-rule="evenodd" clip-rule="evenodd" d="M287.951 195.284C287.951 195.284 288.895 194.343 290.478 193.057C292.061 191.771 293.997 190.182 296.739 190.182C301.626 190.182 304.071 190.911 306.816 190.911C309.561 190.827 311.146 190.182 311.146 190.182C311.146 190.182 314.024 192.195 320.494 192.195C326.97 192.279 331.301 192.836 334.69 193.136C338.079 193.436 349.439 192.195 352.698 192.288C354.823 192.368 356.909 192.879 358.829 193.789L354.069 180.023L348.54 169.519L332.759 152.237C332.759 152.237 313.82 141.089 313.676 141.004C313.592 140.919 307.116 139.203 307.116 139.203L289.963 149.58L274.4 189.846L274.1 198.326L284.174 203.086C286.704 198.846 289.494 195.454 292.109 195.024C289.749 195.281 287.948 195.281 287.948 195.281L287.951 195.284Z" fill="#D5B457"/>
<path fill-rule="evenodd" clip-rule="evenodd" d="M287.736 198.159C286.235 198.243 284.994 197.944 284.649 196.873C283.363 193.271 282.334 192.757 281.257 192.757C280.18 192.757 278.727 195.072 277.865 195.284C277.003 195.496 275.98 192.627 275.98 192.627L275.036 192.197C275.036 192.197 269.504 195.798 265.603 200.044C261.702 204.29 255.311 211.495 252.439 212.778C249.568 214.062 239.702 214.494 236.327 215.223C232.952 215.953 229.21 218.398 228.695 218.954C228.181 219.511 230.199 220.111 230.499 220.667C230.798 221.182 227.194 220.967 226.895 221.515C226.683 221.945 227.743 224.387 228.269 225.631C229.189 225.174 230.198 224.925 231.225 224.902C234.527 224.817 236.929 227.005 240.873 227.005C250.393 227.005 259.011 220.014 265.357 217.869C270.033 216.283 274.063 215.124 276.893 212.552C278.264 211.396 280.709 208.821 282.939 205.005C284.567 202.39 286.156 199.945 287.744 198.145L287.736 198.159Z" fill="#D2B257"/>
<path fill-rule="evenodd" clip-rule="evenodd" d="M151.208 410.374C151.208 410.374 150.36 407.199 142.502 399.01C140.272 396.695 138.901 394.77 137.4 393.394C133.669 389.875 131.481 388.933 128.824 386.918C122.992 382.588 116.646 382.588 111.759 377.271C106.872 371.954 101.176 361.795 97.2187 351.412C93.3179 341.036 92.2437 337.734 92.2437 337.434C92.2437 337.135 93.3179 335.119 94.6888 335.419C96.0597 335.719 96.0597 338.376 96.4046 339.02C97.0876 340.072 97.8623 341.061 98.7196 341.977C100.735 344.295 103.607 347.065 105.066 351.197C104.766 347.681 103.565 343.78 103.565 343.78C103.565 343.78 111.112 348.54 117.542 353.512C124.018 358.487 126.675 360.203 128.566 363.375C130.457 366.546 134.912 374.91 137.046 377.355C139.181 379.8 168.422 389.018 168.422 389.018L182.332 399.389L189.238 414.526L183.833 423.006L173.457 425.236L156.604 417.689L151.208 410.371V410.374Z" fill="#D2B159"/>
<path fill-rule="evenodd" clip-rule="evenodd" d="M113.769 358.23C113.769 358.23 117.285 363.847 125.861 369.164C133.581 373.839 145.801 378.085 156.695 380.615C162.953 382.116 169.214 383.272 174.83 383.36C189.967 383.572 200.386 379.244 213.296 377.828C220.286 377.098 228.862 376.542 237.78 374.436C249.228 371.691 256.004 368.601 265.224 364.26C271.912 361.173 278.046 358.858 283.018 355.898C290.009 351.783 295.111 347.195 301.03 345.824C300.301 347.84 299.529 351.441 293.697 355.172C296.784 355.084 301.03 354.872 301.03 354.872C301.03 354.872 296.914 357.315 289.667 362.804C285.206 366.196 279.29 371.937 273.244 375.753C269.34 378.198 265.094 379.993 262.307 381.457C255.523 385.188 252.787 387.074 248.329 391.633C249.915 391.548 250.045 391.633 250.045 391.633C250.045 391.633 244.426 392.362 240.398 394.505C239.55 394.505 238.08 394.205 235.508 394.935C233.492 395.576 230.832 397.038 228.091 397.807C224.187 398.966 222.904 398.451 222.904 398.451L223.545 399.737C223.545 399.737 218.457 399.65 216.761 399.822C217.061 399.907 216.976 400.037 216.976 400.037C216.678 400.087 216.391 400.188 216.128 400.336C215.312 400.865 214.414 401.256 213.471 401.493C212.957 401.577 212.527 401.577 211.882 401.707C212.097 402.222 213.771 405.099 214.542 406.795C213.901 407.225 204.25 414.515 204.25 414.515C204.55 414.986 204.794 415.49 204.98 416.016C205.279 416.957 205.409 418.331 205.709 418.973C206.435 420.259 206.865 420.474 206.865 420.474C206.865 420.474 205.709 420.688 203.691 421.203C201.978 421.633 199.875 422.359 196.907 422.789C195.996 422.907 195.08 422.979 194.162 423.004C194.592 423.948 196.477 427.549 193.003 431.707C189.529 435.865 188.458 436.47 187.387 439.127C186.847 438.719 186.273 438.36 185.671 438.053C184.515 437.538 182.926 436.769 182.369 435.738C182.045 437.112 181.615 438.46 181.083 439.768C180.012 442.64 178.426 445.473 178.126 447.615C176.967 446.329 174.825 443.799 171.865 444.314C168.906 444.828 166.548 448.859 166.034 450.018C166.034 449.289 165.519 448.732 165.392 449.588C165.305 450.532 163.676 460.392 154.586 468.369C154.501 466.353 154.501 461.893 154.286 460.437C153.438 461.285 152.401 462.537 146.225 465.197C140.178 467.854 141.137 470.514 141.137 470.514C141.137 470.514 140.622 466.274 143.881 461.808C147.183 457.35 149.198 455.247 149.198 454.905C149.145 454.557 148.996 454.23 148.769 453.961C148.339 453.532 147.482 453.017 147.482 452.675C147.997 452.463 153.099 450.018 152.799 444.955C152.5 440.413 150.572 438.053 149.198 436.382C148.986 436.167 151.216 434.582 150.914 434.067C150.699 433.767 147.957 431.749 147.612 430.675C147.694 430.034 147.837 429.403 148.042 428.79C148.342 427.846 148.557 427.201 148.472 426.559C148.257 425.488 147.098 422.529 146.756 422.229C147.056 422.314 149.198 422.229 149.198 422.229C149.198 422.229 147.485 419.484 147.183 418.198C146.88 416.912 146.239 413.523 145.897 412.881C146.626 412.966 148.427 413.093 148.427 412.881C148.514 412.237 146.841 411.165 147.579 410.337C148.093 410.422 149.08 410.852 150.021 412.053C149.506 410.679 148.65 408.022 146.846 406.951C147.694 406.651 150.578 405.877 153.108 407.378C155.637 408.879 156.5 410.979 156.5 410.979C156.5 410.979 158 412.138 160.318 413.854C162.975 415.954 166.362 418.942 171.766 421.056C172.925 421.7 175.882 421.7 178.027 421.271C178.962 421.048 179.857 420.687 180.684 420.199C180.983 420.023 181.3 419.879 181.629 419.77C181.168 418.845 180.638 417.955 180.043 417.11C180.772 417.11 181.629 417.198 181.629 417.198C181.629 417.198 182.143 416.039 179.828 413.806C180.342 413.291 180.987 412.958 180.987 412.09C180.258 412.005 178.972 410.934 178.672 410.504C179.099 410.204 179.743 409.218 180.472 408.918C179.828 408.404 178.242 406.258 177.513 406.046C178.21 405.788 178.884 405.472 179.528 405.102C179.528 405.102 175.927 404.158 174.768 403.386C173.609 402.538 171.896 401.071 170.867 400.642C169.793 400.212 167.908 400 167.136 399.141C167.863 399.356 169.022 399.141 169.881 399.141C170.523 399.141 170.825 399.226 171.037 399.226C170.952 398.926 170.952 398.281 172.626 398.069C173.431 397.948 174.212 397.702 174.941 397.34C174.941 397.34 173.352 397.255 171.549 395.54C169.745 393.824 168.247 392.453 167.218 392.238C166.147 392.023 164.132 392.967 162.888 392.88C161.172 392.668 160.443 391.808 160.443 391.808C160.443 391.808 154.741 392.323 142.092 384.606C131.156 377.915 126.396 371.999 126.396 371.999C125.372 371.628 124.383 371.168 123.439 370.625C119.323 368.483 113.619 364.022 113.791 358.188L113.769 358.23Z" fill="#C2A44D"/>
<path fill-rule="evenodd" clip-rule="evenodd" d="M271.525 100.862C272.517 101.185 273.399 101.779 274.069 102.578C276.084 104.893 277.371 109.266 272.783 113.941C274.584 114.583 275.327 114.789 276.899 114.583C275.313 116.471 271.712 120.502 271.497 124.018C271.282 126.89 273.083 127.75 273.083 127.75C273.083 127.75 270.338 130.921 270.211 136.23C271.507 134.768 272.925 133.419 274.451 132.199C277.625 129.669 281.998 126.797 284.957 124.996C284.917 125.751 285.019 126.507 285.257 127.224C285.257 127.224 290.786 122.678 295.433 124.697C297.533 125.641 296.589 128.598 296.589 128.598C296.589 128.598 299.464 127.526 301.479 129.542C303.495 131.557 306.344 136.755 307.805 138.771C308.447 139.715 310.12 141.515 311.833 144.302C314.174 148.205 316.128 152.326 317.668 156.607C317.752 154.377 318.309 150.906 324.658 153.091C331.004 155.321 338.206 159.996 344.252 169.203C350.299 178.409 351.797 188.803 354.841 192.76C357.928 196.576 361.102 202.922 361.317 205.582C361.532 208.242 360.373 216.815 366.719 240.013C368.519 232.811 371.264 216.815 371.264 216.815L372.765 202.707L374.481 159.055L328.898 121.186L293.265 95.3276L270.066 97.5579L271.522 100.859L271.525 100.862Z" fill="#CAA13E"/>
<path fill-rule="evenodd" clip-rule="evenodd" d="M356.215 165.825C356.215 165.825 355.57 161.585 344.852 154.377C334.13 147.259 325.769 147.259 318.052 141.213C312.133 136.453 305.96 125.517 301.94 121.915C298.036 118.357 297.395 108.065 297.395 108.065L310.558 97.0408L330.136 68.7431L346.686 50.5195L354.618 61.5435L365.642 74.4925L371.773 100.478L374.003 138.514L356.195 165.828L356.215 165.825Z" fill="#B59544"/>
<path fill-rule="evenodd" clip-rule="evenodd" d="M369.466 211.416C369.791 205.648 369.078 199.868 367.363 194.351C364.537 185.561 358.36 169.952 355.491 164.106C354.332 157.63 355.192 157.116 356.435 156.387C357.679 155.657 362.354 152.995 364.915 143.652C367.476 134.31 375.422 134.005 375.422 134.005L380.309 130.404L387.729 148.969L394.202 165.737L396.218 178.559L397.719 189.492L394.202 212.606L376.838 228.3L369.463 211.416H369.466Z" fill="#C89D3A"/>
<path fill-rule="evenodd" clip-rule="evenodd" d="M127.15 469.035V468.561C127.511 468.335 127.83 468.048 128.092 467.713C128.391 467.283 128.609 466.768 128.821 466.641C129.25 466.426 131.266 465.793 132.337 465.997C133.408 466.2 136.241 467.368 137.742 467.283C140.828 467.198 144.43 464.838 150.134 465.912C158.71 467.498 160.725 473.329 165.7 476.631C169.092 478.949 172.603 477.917 173.118 477.917H174.274C174.488 477.917 176.074 476.116 176.934 476.204C178.649 476.289 178.819 477.705 179.89 477.79C182.42 478.089 187.31 476.504 189.755 477.148C190.48 477.375 191.14 477.774 191.677 478.311C192.215 478.848 192.614 479.507 192.842 480.232C193.356 481.818 192.927 483.833 191.683 484.992C189.026 487.434 186.496 489.752 185.982 491.776C186.636 492.275 187.264 492.807 187.864 493.37C166.648 487.965 146.235 479.791 127.15 469.061V469.035Z" fill="#CEB052"/>
<path fill-rule="evenodd" clip-rule="evenodd" d="M355.486 383.359C355.486 383.359 362.173 374.441 364.491 370.023C366.806 365.469 357.159 307.805 357.159 307.805L376.541 244.301L376.024 223.633C376.024 223.633 376.968 204.55 379.198 196.274C381.858 201.034 390.135 206.78 391.935 209.825C392.783 203.99 395.664 191.686 395.237 178.564C396.823 181.007 400.639 205.579 400.639 205.579L404.455 222.129L409.43 239.711L414.961 258.279L418.263 271.101L420.148 274.188L421.737 279.59L423.238 285.424L427.568 299.102L430.112 310.335L432.128 330.704C432.566 332.264 432.882 333.855 433.072 335.464C433.157 337.694 432.772 338.981 432.772 339.368C432.772 339.755 433.502 344.255 433.202 347.644C432.772 351.036 432.772 353.691 430.112 356.124C427.452 358.558 425.782 373.104 425.782 373.104L421.022 369.933C421.022 369.933 421.966 365.599 419.736 361.656C417.505 357.713 413.175 356.896 410.73 357.54C408.288 358.055 403.4 358.824 401.812 360.198C400.311 361.568 396.625 365.814 393.236 367.745C388.996 370.289 382.087 370.489 378.401 371.346C374.67 372.194 370.555 374.738 366.221 377.692C362.824 379.891 359.237 381.783 355.503 383.345L355.486 383.359Z" fill="#CCA847"/>
<path fill-rule="evenodd" clip-rule="evenodd" d="M355.486 477.052C355.486 477.052 355.768 477.236 356.314 477.535C386.778 463.262 414.075 443.03 436.591 418.034C436.345 409.356 436.026 400.461 435.675 397.165C434.949 390.174 435.463 383.057 435.248 378.941C435.034 374.826 432.719 358.058 431.647 353.727C430.488 349.397 428.255 347.251 427.916 347.251C427.616 347.339 425.813 355.401 425.813 357.427C425.813 359.454 425.383 364.333 425.383 365.577C425.084 365.489 424.957 364.729 424.957 364.418C424.527 365.489 424.012 367.377 423.798 367.592C423.583 367.807 424.097 365.792 423.798 365.362C423.498 364.932 422.95 365.147 423.068 364.076C423.119 363.44 423.219 362.81 423.368 362.19C423.368 362.19 422.082 364.076 421.141 368.878C420.196 373.638 420.196 373.768 419.854 374.195C419.555 374.713 417.839 376.425 417.751 377.07C417.667 378.226 419.34 379.385 419.467 380.027C419.552 381.101 417.966 386.073 417.452 388.507C416.937 390.94 417.152 395.709 416.604 398.154C416.174 400.384 415.756 401.67 414.289 402.612C415.36 402.827 416.389 403.126 416.389 403.126C416.389 403.126 417.89 409.472 414.074 414.877C412.703 416.762 412.361 417.621 410.902 419.337C408.028 422.509 405.797 426.121 405.583 428.47C405.434 427.777 405.334 427.074 405.283 426.367C405.283 426.367 400.825 431.557 398.937 434.516C396.495 438.332 393.106 438.117 392.153 439.062C391.2 440.006 390.994 441.719 391.305 443.092C390.457 443.304 388.863 443.607 387.789 446.908C387.274 448.621 385.988 450.3 383.973 451.454C381.957 452.607 379.512 452.955 378.268 453.254C379.34 453.554 379.769 453.554 380.284 453.896C379.642 454.967 376.683 456.641 373.381 458.786C370.08 460.801 368.491 463.758 367.677 465.689C366.829 467.489 365.577 468.648 363.561 468.863C364.409 469.378 365.664 470.576 366.306 470.963C365.362 471.178 363.762 471.178 360.904 473.623C357.902 476.111 356.873 476.84 355.5 477.055L355.486 477.052Z" fill="#C39D3C"/>
<path fill-rule="evenodd" clip-rule="evenodd" d="M295.82 496.924C297.462 495.773 299.241 494.83 301.115 494.117C307.802 491.46 314.878 490.945 317.665 490.089C320.325 489.241 322.425 488.07 325.726 487.429C325.639 488.181 325.565 488.887 325.486 489.554C315.753 492.614 305.841 495.075 295.806 496.924H295.82Z" fill="#D2BA6B"/>
<path fill-rule="evenodd" clip-rule="evenodd" d="M419.176 321.011C419.176 321.011 417.805 328.429 415.36 333.104C412.915 337.779 410.272 344.252 410.272 344.252C410.288 342.794 410.46 341.341 410.786 339.919C407.7 341.719 400.195 346.053 398.066 347.981C396.051 349.781 392.662 352.956 391.805 354.456C393.821 348.54 395.921 343.223 396.266 340.778C393.179 343.008 378.769 354.886 371.267 362.733L347.896 381.643C345.199 383.098 342.422 384.399 339.577 385.538C335.549 387.251 330.789 388.71 327.273 390.084C328.217 387.554 329.715 385.321 331.818 383.178C334.048 381.078 340.736 373.83 341.765 370.458C342.709 366.942 342.924 364.842 341.68 361.882C340.521 362.182 337.864 362.312 336.064 362.826C334.263 363.341 332.332 365.268 332.332 365.268C332.332 365.268 333.703 357.422 336.663 350.004C334.433 350.089 330.617 350.731 330.617 350.731C330.617 350.731 335.933 341.813 345.033 335.597C342.246 336.19 339.519 337.036 336.886 338.124C331.569 340.354 325.738 343.656 321.407 345.456C323.849 342.064 341.002 317.585 351.209 294.771C361.385 272.003 365.187 266.171 367.417 253.951C368.573 247.905 368.265 238.97 368.573 230.968C368.873 223.033 369.859 215.916 369.217 211.156C371.875 214.457 381.824 223.763 382.166 244.561C382.466 265.357 372.649 293.446 362.227 308.58C364.771 309.309 371.363 310.168 378.136 298.404C384.908 286.639 384.826 283.354 387.271 278.464C387.571 280.909 387.483 281.766 387.483 281.766C387.483 281.766 397.348 269.803 402.021 254.751C402.965 261.227 405.752 266.932 401.376 278.809C397.476 289.528 392.374 292.145 392.374 292.145C392.374 292.145 394.903 291.716 398.632 289.486C399.276 291.071 399.149 292.878 400.22 293.516C401.292 294.155 402.75 295.232 402.965 296.261C404.121 294.545 405.922 292.357 406.481 290.729C406.052 294.121 405.752 308.953 407.329 316.5C410.634 316.2 414.02 315.986 416.335 310.024C414.749 315.858 414.749 319.372 415.821 324.347C417.579 323.148 419.165 321.003 419.165 321.003L419.176 321.011Z" fill="#C0993A"/>
<path fill-rule="evenodd" clip-rule="evenodd" d="M307.76 84.6541C307.76 84.6541 304.459 86.025 298.842 86.025C293.955 86.025 295.326 84.1396 287.694 84.1396C275.946 84.1396 234.908 90.9236 227.703 90.8275C223.028 90.7427 243.482 92.8429 243.482 92.8429L295.755 93.5722L306.259 92.7242L310.163 84.7813L307.76 84.6541Z" fill="#A88F33"/>
<path fill-rule="evenodd" clip-rule="evenodd" d="M172.216 186.838C172.216 186.838 165.525 191.94 162.696 195.844C159.866 199.747 158.365 202.317 155.148 205.491C155.903 205.52 156.658 205.419 157.379 205.192C157.379 205.192 157.379 206.04 156.864 206.263C157.309 206.213 157.759 206.263 158.181 206.41C158.604 206.557 158.988 206.796 159.306 207.111C158.362 207.625 155.79 210.2 157.805 213.245C159.306 215.56 162.481 215.772 162.481 215.772C162.481 215.772 161.751 217.875 164.796 217.66C171.356 217.36 178.689 214.486 182.075 215.215C185.467 216.063 187.395 216.374 189.795 220.535C192.339 224.65 194.555 225.295 194.555 225.295C194.555 225.295 196.056 221.476 195.714 215.775C196.945 212.701 197.627 209.436 197.729 206.127L195.499 189.704L185.767 177.397L173.16 184.387L172.216 186.83V186.838Z" fill="#E3C571"/>
<path fill-rule="evenodd" clip-rule="evenodd" d="M184.178 184.393C184.178 184.393 185.122 186.623 189.068 186.835C188.639 187.78 188.639 187.91 188.769 188.636C188.854 189.365 188.981 190.437 188.981 190.437C189.415 190.226 189.808 189.939 190.14 189.589C190.355 190.533 189.925 192.031 190.14 193.105C190.272 193.758 190.488 194.392 190.781 194.99C190.844 194.844 190.916 194.701 190.996 194.564C191.081 194.349 191.844 196.879 193.956 198.804C193.954 198.508 194.027 198.216 194.168 197.956C194.2 198.493 194.378 199.012 194.682 199.457C194.524 199.381 194.38 199.28 194.255 199.157C194.255 199.157 194.467 205.941 195.626 209.449C195.82 209.222 195.992 208.978 196.141 208.72C196.141 208.508 196.056 210.608 195.841 212.112C195.541 213.613 195.756 215.713 195.756 215.713C196.529 215.104 197.379 214.599 198.283 214.212C199.569 213.694 201.675 212.109 202.959 208.592C203.703 206.601 204.277 204.55 204.674 202.461C205.089 203.259 205.375 204.118 205.522 205.005C205.61 206.077 207.625 205.52 207.625 205.52L208.055 200.844L210.599 190.253L212.914 183.692L224.063 166.328L244.205 150.815L261.787 154.846L276.622 134.692L251.066 119.34L226.881 121.87L204.932 152.271L187.353 179.845L184.178 184.39V184.393Z" fill="#D8B65B"/>
<path fill-rule="evenodd" clip-rule="evenodd" d="M310.847 140.399C310.847 140.399 309.346 140.698 305.015 142.943C300.685 145.187 297.683 145.899 296.01 149.201C294.336 152.503 294.209 155.12 294.209 155.12C294.209 155.12 297.169 153.834 298.884 153.404C300.685 152.977 302.7 153.105 302.486 153.834C302.279 154.334 301.993 154.797 301.638 155.205C301.638 155.205 305.03 155.12 304.939 156.793C304.849 158.467 304.297 160.31 303.656 161.124C303.011 161.972 300.354 163.227 300.055 164.213C299.325 166.229 300.354 166.314 299.967 167.942C299.667 169.53 298.254 172.617 293.621 178.019C288.861 183.423 286.837 187.239 286.837 187.239C286.837 187.239 284.522 182.909 283.321 179.178C282.473 179.605 277.919 182.134 277.919 182.134L267.37 145.388L267.582 142.943C267.582 142.943 268.526 141.787 268.741 139.641C267.155 139.127 266.94 138.697 264.837 136.685C262.734 134.672 261.021 132.224 257.508 130.551C256.993 129.607 256.349 128.323 253.776 127.806C251.204 127.289 249.661 126.865 249.661 126.865C249.661 126.865 251.032 126.347 251.676 125.276C250.088 125.491 248.804 126.005 245.33 125.921C241.814 125.833 241.427 125.706 239.499 126.005C237.571 126.305 235.259 127.164 234.397 124.205C233.453 123.476 231.437 124.12 229.721 126.647C228.006 129.174 227.406 131.192 224.105 132.179C223.873 133.634 223.363 135.031 222.604 136.294C221.66 137.883 220.159 139.469 218.143 141.826C214.969 145.557 215.484 151.688 210.424 156.364C205.322 161.036 211.272 143.412 211.272 143.412L219.418 123.908L242.617 101.224L278.637 98.7817L282.153 117.438L299.735 123.484L310.841 140.421L310.847 140.399Z" fill="#D3AE4D"/>
<path fill-rule="evenodd" clip-rule="evenodd" d="M316.551 144.514L301.414 122.69L290.823 114.54C290.823 114.54 283.276 100.65 282.761 100.221C282.331 99.9209 275.214 99.1492 270.669 98.8496L271.517 100.95C272.509 101.272 273.39 101.867 274.061 102.666C276.076 104.981 277.362 109.354 272.774 114.029C274.575 114.67 275.318 114.877 276.89 114.67C275.304 116.559 271.703 120.59 271.488 124.106C271.273 126.978 273.074 127.834 273.074 127.834C273.074 127.834 270.329 131.009 270.202 136.314C271.498 134.853 272.917 133.504 274.442 132.283C277.617 129.739 281.989 126.879 284.949 125.078C284.909 125.834 285.01 126.59 285.249 127.308C285.249 127.308 290.777 122.763 295.425 124.779C297.525 125.723 296.581 128.682 296.581 128.682C296.581 128.682 299.455 127.611 301.471 129.626C303.486 131.642 306.358 136.829 307.817 138.847C308.458 139.791 310.132 141.592 311.845 144.376C314.185 148.279 316.139 152.401 317.679 156.683C317.764 154.967 318.109 152.568 321.071 152.568L316.568 144.506L316.551 144.514Z" fill="#CAA13E"/>
<path fill-rule="evenodd" clip-rule="evenodd" d="M89.6291 206.52C89.6291 206.52 88.5578 203.86 89.6291 198.673C90.7004 193.487 92.3738 191.041 92.9306 183.409C93.4875 175.777 98.4624 166.257 98.4624 166.257L112.225 159.999L121.96 162.656L124.832 175.693L112.525 182.477C112.525 182.477 111.883 185.349 108.409 187.664C104.935 189.979 100.133 191.779 98.9768 194.14C98.2857 195.585 97.7813 197.112 97.4759 198.685C97.4759 198.685 93.9595 197.956 91.8593 200.271C89.6291 202.631 89.7139 204.731 89.6291 206.532V206.52Z" fill="#F4EFC8"/>
<path fill-rule="evenodd" clip-rule="evenodd" d="M117.415 203.046C117.415 203.046 116.256 203.775 115.4 205.59C114.552 204.219 112.525 196.07 112.44 188.737C112.355 181.405 111.917 179.588 113.613 177.06C115.309 174.533 121.96 171.871 121.016 167.32C120.072 162.989 116.126 161.189 111.281 162.432C107.889 163.28 105.365 170.494 101.849 174.095C99.1889 176.84 96.0173 176.41 95.1609 177.911C94.0019 179.927 95.0732 181.942 94.7312 183.228C94.6436 183.658 93.5723 185.973 91.6417 188.76C87.7409 194.377 81.1378 202.311 80.2785 209.429C80.5781 205.398 80.3661 205.313 81.4374 200.853L80.7929 199.781L85.0329 185.888L87.7776 174.44L93.9115 155.27L104.715 135.675L115.222 123.925L126.155 124.654L127.441 141.077L133.702 171.91L146.866 188.118L125.768 202.317L117.407 203.046H117.415Z" fill="#EBCC73"/>
<path fill-rule="evenodd" clip-rule="evenodd" d="M123.976 208.872C123.976 208.872 122.175 209.302 121.531 208.96C120.886 208.618 120.248 208.23 120.46 207.801C120.672 207.371 121.83 206.645 121.83 206.3C121.854 205.988 121.756 205.679 121.556 205.439C121.356 205.199 121.07 205.046 120.759 205.014C119.773 204.886 119.473 205.528 119.473 205.528C119.473 205.528 118.529 204.802 117.76 204.68C118.215 204.624 118.673 204.595 119.131 204.592C117.946 204.056 116.689 203.695 115.4 203.521C116.471 202.879 118.574 200.991 119.945 200.991C121.316 200.991 122.175 200.779 121.96 200.05C121.746 199.321 120.674 198.249 119.518 197.82C119.945 197.305 120.248 196.534 119.219 194.428C118.144 192.327 118.574 190.911 118.919 190.4C119.219 189.755 120.29 188.599 120.804 187.87C121.319 187.141 121.748 186.154 122.605 185.64C123.035 185.34 124.406 184.792 125.779 184.269C127.28 183.754 128.524 183.11 129.38 183.754C130.325 184.396 129.895 185.255 129.895 185.255C129.895 185.255 132.854 184.181 135.512 185.555C138.171 186.838 144.647 187.655 144.647 187.655L146.968 192.33L131.616 205.494L125.271 208.668L123.984 208.88L123.976 208.872Z" fill="#E5C66B"/>
<path fill-rule="evenodd" clip-rule="evenodd" d="M145.286 187.352C145.286 187.352 140.526 190.527 139.455 191.683C140.096 191.77 141.168 192.2 140.738 192.842C140.224 193.483 137.137 195.714 135.421 197.817C133.62 199.917 131.905 202.577 131.305 203.863C130.664 205.019 125.774 208.408 124.103 208.835C127.619 208.835 134.695 204.505 137.352 204.505C137.267 205.791 138.081 207.249 139.582 207.376C141.083 207.504 145.413 208.321 151.245 204.719C157.076 201.203 155.148 198.586 157.591 196.873C162.266 193.783 164.151 191.038 166.724 189.325C169.296 187.612 170.627 187.222 170.627 187.222C170.627 187.222 170.712 185.936 171.475 186.066C171.684 186.09 171.882 186.171 172.049 186.299C172.215 186.428 172.343 186.599 172.419 186.796C172.419 186.796 176.88 183.621 182.595 182.765C182.462 182.705 182.355 182.598 182.296 182.465C182.296 182.465 182.722 182.25 182.81 182.035C182.81 182.035 183.11 181.606 183.325 181.821C183.539 182.035 183.839 183.621 184.269 184.266C185.213 183.836 187.013 179.805 187.013 179.805L191.347 167.413V156.092L187.955 156.737L162.515 167.54L147.075 183.536L145.275 187.352H145.286Z" fill="#E6BD62"/>
<path fill-rule="evenodd" clip-rule="evenodd" d="M218.525 131.823C219.901 131.489 221.22 130.953 222.44 130.234C221.926 131.608 221.926 133.109 219.695 136.368C217.465 139.627 217.38 140.099 215.58 143.485C213.779 147.002 213.564 152.061 211.848 154.289C212.618 153.915 213.442 153.67 214.291 153.562C214.291 153.562 212.578 155.063 211.848 156.649C211.119 158.235 209.833 161.536 206.662 163.555C203.49 165.573 199.456 166.856 195.126 171.616C190.793 176.289 186.335 182.208 184.102 184.336C185.261 182.321 186.847 178.29 187.276 175.633C187.706 172.976 187.189 169.799 187.918 166.285C188.647 162.772 188.647 160.239 192.158 154.105C195.669 147.971 201.678 126.661 201.678 126.661L214.627 122.545L218.531 131.808L218.525 131.823Z" fill="#B6933F"/>
<path fill-rule="evenodd" clip-rule="evenodd" d="M209.177 123.976C209.177 123.976 205.276 129.593 204.205 134.567C203.134 139.542 204.118 139.113 203.476 141.558C203.092 143.049 203.092 144.612 203.476 146.103C204.827 143.927 206.677 142.103 208.872 140.783C212.561 138.556 215.563 136.967 217.352 135.082C219.153 133.066 220.654 129.765 224.554 127.235C222.969 127.02 220.738 126.291 220.314 126.387C221.903 124.586 226.66 121.842 231.463 118.54C236.223 115.148 235.923 113.78 243.643 110.394C241.113 110.823 239.912 110.179 237.809 110.394C238.657 108.593 241.625 107.734 244.593 104.777C247.561 101.821 242.707 97.4448 242.707 97.4448L220.094 111.123L209.16 123.987L209.177 123.976Z" fill="#C49937"/>
<path fill-rule="evenodd" clip-rule="evenodd" d="M147.816 113.769L148.33 109.653L154.806 99.2764L161.582 81.0529V56.1387L161.067 41.7311L162.139 32.2957L162.953 29.2966L163.812 28.1377L169.341 31.0096L176.976 41.3863L177.705 61.4132L170.285 93.0153L149.102 116.129L147.816 113.769Z" fill="#DFC068"/>
<path fill-rule="evenodd" clip-rule="evenodd" d="M164.669 26.9788C164.669 26.9788 161.277 27.0665 160.553 41.1744C159.829 55.2822 159.479 62.6994 158.964 69.6898C158.45 76.6801 157.251 80.9229 156.649 85.0414C156.047 89.1599 155.705 94.7736 153.777 98.2052C152.929 99.7909 151.118 104.766 146.872 108.497C142.112 112.613 135 115.487 133.923 115.702C132.035 116.129 122.472 117.073 118.571 119.219C117.2 119.948 114.84 120.804 112.225 123.249C107.036 127.922 100.133 136.283 95.158 146.36C87.526 161.412 79.894 203.906 79.894 203.906L81.6098 201.034C81.6098 201.034 81.8246 197.218 85.6406 190.527C89.3718 183.839 88.3005 176.334 93.4875 163.512C95.5029 158.625 98.0327 152.279 101.119 146.875C106.01 138.084 111.926 130.537 117.887 126.421C127.619 119.733 138.341 118.275 138.341 118.275L149.877 110.643C149.877 110.643 151.892 106.742 154.552 102.281C158.28 96.023 163.032 89.0326 164.069 78.8708C165.658 63.8188 161.839 53.9565 162.054 45.0384C162.269 36.1203 162.354 29.5596 164.157 27.971C165.96 26.3824 164.671 26.9845 164.671 26.9845L164.669 26.9788Z" fill="#A88F33"/>
<path fill-rule="evenodd" clip-rule="evenodd" d="M164.669 94.3018C164.669 94.3018 169.757 81.7796 172.086 70.6737C172.515 68.4434 173.372 66.216 173.587 64.4154C174.658 53.9087 174.958 49.5783 173.587 43.8316C172.515 39.5916 168.4 35.77 166.254 32.8076C164.154 29.7181 163.168 28.5676 163.597 27.9175C164.027 27.2674 165.698 26.2045 167.326 26.3317C169.056 26.3821 170.759 26.784 172.329 27.5129C173.9 28.2418 175.306 29.2825 176.461 30.5717C179.763 34.3877 182.378 47.3395 182.378 47.3395L185.128 64.4296L192.118 85.9546L164.674 94.3187L164.669 94.3018Z" fill="#C99E3D"/>
<path fill-rule="evenodd" clip-rule="evenodd" d="M212.479 81.268C212.479 81.268 211.535 81.6948 209.822 81.268C209.895 81.968 209.773 82.6746 209.471 83.31C209.168 83.9454 208.696 84.4849 208.106 84.8691C206.305 84.1399 189.45 85.5984 189.45 85.5984C189.45 85.5984 181.603 84.2247 179.158 73.848C177.445 66.9424 180.444 57.425 179.458 51.164C177.957 41.9434 175.857 40.14 175.642 37.2709C175.427 34.4018 175.212 33.6697 175.212 31.8691C174.268 31.6543 173.711 31.3547 172.77 31.3547C172.555 30.5067 172.982 29.7661 172.041 28.2651C172.555 28.48 176.071 28.9096 180.187 32.8104C183.579 35.9848 183.579 37.1409 184.091 37.7854C184.732 38.427 189.922 42.8734 192.152 47.3056C194.383 51.7378 198.713 65.8711 199.699 68.1862C199.999 69.1303 200.644 70.0744 202.243 72.217C204.731 75.3065 208.375 80.4143 212.49 81.2623L212.479 81.268Z" fill="#B58634"/>
<path fill-rule="evenodd" clip-rule="evenodd" d="M184.696 38C187.293 42.1962 189.627 46.5502 191.683 51.0366C194.213 56.738 195.714 61.4133 198.888 65.2293C197.172 60.2572 194.128 50.4797 192.328 47.0058C190.312 43.3311 186.196 39.3738 184.696 38.0028V38Z" fill="#A88F33"/>
<path fill-rule="evenodd" clip-rule="evenodd" d="M155.536 108.497C155.536 108.497 151.205 109.568 143.144 113.814C140.484 115.185 137.957 116.341 135.512 117.415C129.16 120.287 122.348 122.941 116.943 124.405C117.373 124.92 117.585 125.132 117.585 125.132C117.585 125.132 117.585 127.235 118.744 128.433C118.102 129.078 109.523 134.909 112.056 154.419C113.769 153.777 115.784 152.918 116.084 152.918C116.601 153.006 116.728 154.419 117.37 154.419C118.012 154.419 120.115 153.571 122.345 150.688C122.26 151.847 120.974 163.51 127.877 171.356C129.163 169.855 132.422 164.88 132.422 164.88L132.507 163.295C132.507 163.295 132.806 157.763 134.61 152.703C136.413 147.643 139.927 143.912 139.927 143.912L158.275 117.712L155.53 108.494L155.536 108.497Z" fill="#E6C367"/>
<path fill-rule="evenodd" clip-rule="evenodd" d="M138.383 146.968C137.543 147.562 136.618 148.024 135.639 148.339C135.339 147.268 134.909 143.579 137.439 139.978C140.399 135.645 146.872 130.028 148.672 125.562C149.831 122.687 149.317 115.485 159.609 106.264C169.901 97.0435 173.929 93.872 173.929 93.872L190.567 85.5107L211.02 93.5724L200.858 133.4L192.969 152.056L161.593 146.14L138.381 146.968H138.383Z" fill="#DCBA5A"/>
<path fill-rule="evenodd" clip-rule="evenodd" d="M150.36 136.153L154.264 131.266V127.792C154.264 127.792 158.594 126.633 163.267 121.873C167.939 117.113 174.415 107.98 180.119 108.537C185.823 109.181 186.38 120.929 186.595 124.233C186.81 127.537 187.539 135.037 188.695 139.07C189.981 143.101 174.802 158.365 174.802 158.365L164.493 166.212L150.36 136.153Z" fill="#E9CE77"/>
<path fill-rule="evenodd" clip-rule="evenodd" d="M162.438 176.846C162.438 176.846 165.613 171.871 163.286 170.8C164.657 167.713 167.187 164.454 167.187 164.454C167.187 164.454 168.988 159.996 174.819 154.507C180.651 149.017 184.255 145.371 185.199 141.685C185.781 139.283 186.097 136.824 186.143 134.353C186.773 134.868 187.448 135.326 188.158 135.723C189.102 136.153 193.56 139.839 192.918 147.259C192.277 154.679 189.526 157.766 189.526 157.766C189.526 157.766 186.869 160.423 184.984 161.797C182.966 163.168 182.239 164.753 178.85 164.883C179.198 164.606 179.59 164.389 180.009 164.239C180.009 164.239 176.493 163.812 174.604 165.525C172.716 167.238 168.702 172.515 166.687 174.104C164.671 175.39 162.447 176.849 162.447 176.849L162.438 176.846Z" fill="#CDAE50"/>
<path fill-rule="evenodd" clip-rule="evenodd" d="M305.015 93.4424C299.949 91.596 294.625 90.5545 289.237 90.3556C280.231 90.056 267.067 90.5705 254.161 90.6553C240.268 90.7401 227.661 85.8952 210.167 85.0387C207.295 83.3229 199.991 75.8181 177.191 91.7266C178.562 91.6418 193.744 88.2102 199.015 94.8161C204.332 101.377 202.831 112.525 202.105 115.182C200.731 121.101 196.271 129.72 194.473 135.766C192.675 141.812 193.099 144.989 191.813 149.229C190.527 153.469 187.697 155.575 189.368 160.463C191.598 159.092 192.76 159.092 196.486 150.73C200.211 142.369 199.445 136.408 205.621 129.333C211.668 122.215 221.733 112.48 225.561 110.035C229.388 107.59 259.777 91.8114 291.597 106.863C299.272 106.049 305.018 93.4395 305.018 93.4395L305.015 93.4424Z" fill="#D2A83E"/>
<path fill-rule="evenodd" clip-rule="evenodd" d="M190.01 87.6082C189.978 87.286 189.907 86.9689 189.798 86.6641C189.5 86.037 189.109 85.4586 188.639 84.9483C188.639 84.9483 181.091 83.5774 177.275 84.0042C170.585 84.7335 164.539 93.01 161.709 97.2557C158.88 101.501 155.363 108.059 151.547 111.448C151.589 111.118 151.513 110.784 151.332 110.504C151.332 110.504 151.547 110.804 151.12 111.234C150.694 111.663 150.691 111.875 150.906 112.082L151.55 112.723C151.762 112.723 157.681 110.063 165.743 102.547C174.319 94.7004 180.88 90.6752 184.311 89.2958C186.141 88.5181 188.054 87.9519 190.012 87.6082H190.01Z" fill="#C29637"/>
<path fill-rule="evenodd" clip-rule="evenodd" d="M336.406 55.3672C336.406 55.3672 335.032 57.0801 333.316 58.9684C329.5 62.9992 324.525 67.5416 320.279 72.2169C316.251 76.6774 311.706 80.1514 306.601 85.9828C301.496 91.8142 295.577 98.2873 294.079 100.176C292.708 102.064 291.637 105.15 291.637 106.736C290.908 106.222 290.051 105.665 290.051 105.665C290.412 106.338 290.843 106.971 291.337 107.553C292.408 109.054 294.079 110.945 294.938 112.098C295.993 113.567 296.749 115.227 297.166 116.986C297.68 117.07 300.982 117.715 305.1 110.939C309.219 104.164 314.618 96.7468 314.618 96.7468L323.194 84.0098L328.598 73.2063L335.382 61.1138L336.414 55.3672H336.406Z" fill="#AC8132"/>
<path fill-rule="evenodd" clip-rule="evenodd" d="M345.197 46.7061C345.197 46.7061 340.007 50.9461 337.991 53.4901C335.976 56.0341 331.207 62.7106 331.207 62.7106L332.923 62.4958L341.629 54.779L345.021 48.7328L345.194 46.7174L345.197 46.7061Z" fill="#A88F33"/>
<path fill-rule="evenodd" clip-rule="evenodd" d="M343.608 387.475C343.608 387.475 343.523 383.958 345.496 381.858C347.512 379.755 352.614 376.668 357.589 365.09C362.564 353.512 363.118 350.898 363.118 350.898C363.118 350.898 354.199 358.53 348.702 360.33C349.988 357.67 350.717 355.785 351.361 354.411C350.632 353.77 347.545 353.04 347.246 352.698C348.959 350.982 349.903 346.779 353.377 343.992C357.837 340.6 365.984 334.771 372.316 329.576C378.647 324.381 391.096 312.297 392.684 308.78C393.629 310.151 393.841 311.008 393.841 311.008C393.841 311.008 387.582 319.157 384.323 324.344C381.448 328.804 381.663 331.334 381.663 331.334L387.582 328.79C387.582 328.79 389.295 335.136 381.536 344.786C384.928 343.5 386.296 344.272 388.224 343.198C385.05 345.216 380.677 347.961 376.561 355.505C372.53 363.052 367.041 371.843 357.781 377.33C348.775 383.119 343.585 387.449 343.585 387.449L343.608 387.475Z" fill="#A67A2E"/>
<path fill-rule="evenodd" clip-rule="evenodd" d="M320.367 97.9054C320.367 97.9054 316.851 105.235 316.336 110.939C316.251 112.313 315.907 113.384 315.907 114.97C315.822 120.072 316.206 125.776 315.059 128.433C314.629 127.362 314.414 126.633 313.984 126.206C313.343 128.007 312.184 133.623 311.24 135.723C310.813 134.352 309.869 129.592 309.956 123.976C310.044 118.359 310.168 117.285 310.168 116.129C309.956 117.842 308.797 120.16 308.368 121.531C307.726 120.375 306.997 118.874 306.138 117.63C305.623 118.478 304.981 119.73 304.425 120.375C304.337 119.86 304.125 118.486 303.995 116.559C303.91 114.328 303.78 111.456 303.91 110.854C304.122 109.698 305.926 105.153 309.742 100.992C314.287 96.0172 318.962 86.4574 320.333 83.4979C321.704 80.5384 327.535 68.2339 327.535 68.2339H331.996L325.52 82.9834C325.52 82.9834 321.619 91.0451 319.604 94.0074C317.588 96.9698 313.343 105.458 311.455 108.76C312.825 106.959 313.984 106.015 315.358 104.299C316.687 103.098 320.373 97.9111 320.373 97.9111L320.367 97.9054Z" fill="#8C6228"/>
<path fill-rule="evenodd" clip-rule="evenodd" d="M345.281 46.1465C344.553 48.389 343.401 50.4711 341.889 52.2804C339.229 55.4547 333.525 59.6975 330.741 63.0839C328.197 66.3854 323.109 75.3912 325.421 86.0675C326.269 83.7525 327.866 79.1648 332.112 73.975C336.357 68.7853 340.903 62.8266 343.136 58.1966C345.363 53.5213 345.663 49.8353 345.663 49.8353L346.511 48.764L345.996 46.3189L345.267 46.1465H345.281Z" fill="#CBA94C"/>
<path fill-rule="evenodd" clip-rule="evenodd" d="M432.114 330.572C432.114 330.572 430.398 325.899 429.883 321.653C429.369 317.408 430.731 316.565 429.154 311.706C428.21 308.747 426.497 309.162 426.067 308.747C425.638 308.331 425.338 303.86 425.423 301.414C425.508 298.969 425.338 295.798 424.908 294.424C424.267 293.91 423.837 293.48 422.893 290.309C421.822 287.134 421.307 285.548 420.793 284.607C420.278 283.666 418.775 282.807 418.775 281.862C418.775 279.974 420.49 278.991 420.49 278.47C420.406 277.399 419.119 278.258 418.775 277.956C418.348 277.442 419.849 274.355 419.292 273.925C419.077 273.713 417.576 275.514 417.189 274.999C416.759 274.482 416.245 269.38 415.473 265.994C414.747 262.692 413.972 260.292 413.887 259.306C413.803 258.362 407.968 241.724 406.555 237.693C405.416 234.287 404.457 230.823 403.683 227.316C403.253 225.301 402.954 221.182 402.739 221.612C402.524 222.042 402.654 224.142 402.309 224.057C402.01 223.969 400.938 216.64 400.596 215.481C400.297 214.322 398.493 210.393 398.052 207.549C397.623 204.675 396.681 197.17 396.037 192.068C395.392 186.966 395.093 184.865 395.093 183.588C395.198 180.463 395.026 177.334 394.578 174.24C393.73 168.835 392.034 162.275 390.548 158.461C387.676 151.256 380.041 132.818 378.676 128.23C378.676 127.071 380.176 127.716 380.176 127.716C380.176 127.716 383.905 137.064 386.65 144.266C389.309 151.471 391.839 157.817 392.484 158.461C392.998 159.103 397.029 166.178 398.83 177.756C400.63 189.334 401.272 200.011 402.346 207.128C402.86 210.52 403.29 214.119 404.361 217.72C405.518 221.623 407.318 225.654 409.678 231.828C411.694 237.017 413.195 241.348 414.009 245.079C414.953 249.839 414.953 253.44 415.51 255.801C416.027 257.816 416.796 261.844 418.599 267.673C420.403 273.501 423.057 281.009 424.858 285.681C428.377 295.029 429.946 302.833 430.477 306.994C430.946 311.282 432.535 326.12 432.105 330.577L432.114 330.572Z" fill="#A88F33"/>
<path fill-rule="evenodd" clip-rule="evenodd" d="M345.496 45.632L345.281 46.1465C345.281 46.1465 345.923 46.3613 345.796 47.2206C345.805 48.3963 345.733 49.5712 345.581 50.737C345.369 52.2379 344.939 53.394 344.854 54.3381C344.854 56.3536 345.154 58.6686 342.31 64.4152C341.462 66.001 340.939 67.3719 340.51 68.316C339.439 70.631 339.224 70.9759 338.28 72.0472C339.781 71.1992 345.185 67.8072 347.927 68.316C346.042 69.3873 343.167 71.4904 341.366 74.2351C341.796 74.3199 343.597 74.6647 346.454 74.2351C351.214 73.5058 356.531 71.79 361.204 72.132C366.309 72.4316 364.293 66.001 364.293 66.001L358.403 53.052L347.254 45.208L345.496 45.6348V45.632Z" fill="#BE9C44"/>
<path fill-rule="evenodd" clip-rule="evenodd" d="M374.568 142.629C374.568 142.629 369.593 137.654 367.578 120.581C365.563 103.429 365.992 78.1809 365.992 78.1809L361.961 68.3187C361.961 68.3187 361.113 61.758 359.002 59.3158C356.89 56.8735 352.744 52.7551 350.855 50.7397C348.967 48.7242 346.825 45.9796 345.539 45.5499C346.18 44.4786 349.055 38.4324 360.073 38.3476C371.092 38.2628 374.489 44.3938 375.64 46.624C376.79 48.8543 381.986 58.496 383.913 76.8694C385.714 95.2201 385.802 96.5938 385.502 102.94C385.287 106.456 384.128 114.603 382.11 123.306C380.267 130.683 378.252 138.918 374.563 142.646L374.568 142.629Z" fill="#A17C34"/>
<path fill-rule="evenodd" clip-rule="evenodd" d="M358.968 157.251C360.626 157.371 362.282 156.997 363.728 156.177C365.314 156.092 371.06 156.822 375.476 151.205C375.775 152.488 376.55 155.965 374.532 159.052C375.606 157.978 377.192 157.551 377.406 157.251C377.491 158.837 378.992 163.724 372.646 175.602C374.359 173.717 376.375 173.801 378.175 173.587C378.263 175.817 379.461 183.319 376.29 187.352C374.19 190.097 370.758 189.238 370.758 189.238C370.808 188.639 370.808 188.036 370.758 187.437C370.673 186.278 370.244 185.122 370.546 184.351C368.888 183.593 367.378 182.547 366.086 181.261C362.354 177.745 357.509 171.744 357.167 167.283C356.738 162.308 361.198 161.237 361.198 161.237C360.825 160.903 360.506 160.512 360.254 160.078C360.039 159.352 359.824 158.193 358.968 157.251Z" fill="#8C6228"/>
<path fill-rule="evenodd" clip-rule="evenodd" d="M325.896 103.307C325.896 103.307 325.681 103.008 324.525 104.379C324.74 103.008 324.955 101.719 325.039 100.475C325.587 99.3235 326.295 98.2557 327.143 97.3035C326.498 98.5868 326.068 99.7457 326.068 99.7457C326.068 99.7457 327.657 96.7862 329.972 94.9856C331.558 93.6995 333.573 93.1002 334.43 91.8989C335.374 90.6128 335.159 90.3979 335.374 90.1831C335.374 90.1831 337.477 88.8122 340.694 84.7785C341.12 84.2641 341.765 83.7072 342.195 83.1928C342.921 82.8931 344.637 82.1215 346.652 81.0897C348.755 79.9336 351.113 78.3479 352.571 77.6977C355.443 76.4116 358.49 76.5416 359.904 74.5234C360.975 74.2237 362.131 71.007 361.919 68.2651C363.505 68.9068 371.651 73.9665 374.441 85.0301C376.457 92.8769 372.853 104.969 371.352 110.804C369.851 116.638 369.639 120.966 367.536 123.623C364.876 127.142 356.302 132.103 354.199 134.559C352.399 136.574 346.997 141.676 347.209 145.362C347.424 148.107 350.81 149.602 351.542 150.123C352.274 150.643 352.269 151.281 353.643 150.971C355.016 150.66 355.528 150.026 356.088 150.026C356.729 150.111 356.729 150.241 357.029 150.241C357.246 150.235 357.462 150.205 357.673 150.154C357.673 150.154 357.459 154.057 348.326 155.242C347.681 155.329 347.039 155.541 346.223 155.671C347.297 155.157 347.938 155.157 349.097 153.571C347.811 153.356 344.122 153.141 343.178 152.842C343.478 152.327 344.464 150.954 345.278 150.312C346.008 149.67 345.194 149.464 344.552 149.798C343.447 150.549 342.387 151.365 341.378 152.24C340.306 153.184 339.362 154.47 337.646 155.632C337.132 153.916 337.217 150.657 339.235 148.299C338.718 148.384 337.731 149.885 336.79 149.586C336.62 148.021 336.721 146.44 337.09 144.91C337.604 142.98 340.391 139.593 340.391 139.593L353.855 115.535L356.726 97.312L325.896 103.302V103.307Z" fill="#92723A"/>
<path fill-rule="evenodd" clip-rule="evenodd" d="M325.17 104.336C325.17 104.336 324.44 104.851 325.899 105.837C325.684 106.137 325.17 107.208 324.525 107.937C323.799 108.785 323.024 109.311 322.724 110.041C322.083 111.541 321.568 112.57 321.568 113.215C321.568 113.859 321.354 117.975 319.553 120.632C318.908 121.576 318.179 123.162 317.665 124.233C316.593 126.119 315.649 127.625 315.435 128.473C315.008 129.974 314.708 134.09 314.708 134.09C314.708 134.09 315.652 132.931 315.994 132.504C315.477 133.575 314.92 134.731 314.106 135.591C314.62 135.161 316.121 134.09 318.651 131.86C322.168 128.903 327.657 123.928 334.348 119.988C332.33 120.717 330.617 120.717 329.246 120.932C330.317 119.86 339.964 108.54 345.024 107.468C345.331 107.079 345.484 106.59 345.454 106.094L341.12 105.668L332.329 107.553L331.046 100.769L325.17 104.328V104.336Z" fill="#B18E3E"/>
<path fill-rule="evenodd" clip-rule="evenodd" d="M339.15 142.929C339.15 142.929 337.991 144.085 336.92 146.96C336.095 146.098 335.388 145.132 334.817 144.085C333.231 141.428 330.789 138.039 325.085 139.969C325 138.169 324.87 137.225 325.085 135.938C326.029 135.726 328.901 133.411 331.773 130.022C333.791 127.707 335.676 125.047 336.962 121.661C337.81 121.016 339.277 119.945 341.202 118.701C343.947 116.816 347.249 114.241 347.763 111.369C346.477 111.883 343.732 113.17 339.614 112.958C341.202 112.228 343.645 111.457 343.345 108.282C343.989 107.853 344.504 107.553 344.504 107.553C344.021 107.392 343.512 107.319 343.003 107.338C342.915 107.039 342.788 106.612 342.059 106.824C341.33 107.036 341.211 107.039 341.115 107.338C340.815 107.426 339.829 107.338 339.099 107.855C338.37 108.373 336.355 110.083 335.583 110.383C335.883 109.868 336.309 109.099 336.309 109.099C336.309 109.099 334.209 109.311 332.708 109.947C329.964 110.891 326.792 112.607 323.575 114.278C323.875 113.763 324.005 113.43 324.217 113.334C324.429 113.237 324.946 113.122 324.946 113.034C324.946 112.946 324.734 112.186 324.861 111.878C325.823 109.84 326.958 107.89 328.253 106.046C329.754 104.028 330.054 101.156 330.054 101.156L336.615 97.8547L355.053 93.6147L367.018 94.344L365.517 102.621L358.451 117.07L352.404 130.234L345.499 138.299L339.153 142.929H339.15Z" fill="#543E26"/>
<path fill-rule="evenodd" clip-rule="evenodd" d="M369.037 107.112C369.037 107.112 361.831 116.03 359.816 117.404C361.102 114.659 369.037 98.3212 371.909 93.7759C371.267 93.2614 370.408 93.2614 372.423 85.2959C370.71 89.3239 370.108 91.4269 368.695 92.4982C367.281 93.5695 367.106 93.2275 366.151 93.2275C366.331 92.9012 366.405 92.5267 366.363 92.1562C366.363 92.1562 360.316 91.4269 356.187 91.4269C352.057 91.4269 343.882 93.6572 339.334 95.4578C335.733 96.9587 333.717 96.9587 332.431 97.9C331.145 98.9713 330.416 100.13 329.771 100.43C329.257 100.729 326.815 101.501 326.255 102.315C325.741 103.163 324.884 104.116 324.884 104.331C324.884 104.545 324.669 104.848 325.314 104.63C325.526 104.545 327.114 103.686 328.915 102.615C331.357 101.244 334.317 99.6582 336.462 98.7141C342.593 96.269 344.524 96.6987 347.266 96.1842C350.138 95.6698 354.256 94.4684 356.998 94.4684C359.743 94.3836 364.932 94.4684 366.134 94.6833C365.619 95.1129 365.19 95.6274 365.404 97.4279C365.404 97.9424 364.975 98.4993 364.556 99.743C363.273 103.259 360.828 109.091 359.468 112.05C357.583 116.078 355.44 119.467 354.38 121.568C353.32 123.668 350.988 129.2 348.679 132.159C346.37 135.119 345.163 136.919 344.439 137.564C343.715 138.208 338.52 142.021 338.907 143.395C339.851 143.096 345.813 140.851 350.14 135.978C354.468 131.105 355.33 128.131 358.716 125.471C362.103 122.811 364.763 118.354 366.348 114.668C367.677 111.236 367.377 110.165 369.048 107.121L369.037 107.112Z" fill="#806031"/>
<path fill-rule="evenodd" clip-rule="evenodd" d="M213.768 173.674C213.768 173.674 212.824 177.575 210.678 179.506C208.578 181.394 204.847 183.022 204.42 186.197C203.906 189.368 208.151 190.957 208.151 190.957C208.151 190.957 205.833 194.773 205.833 197.645C205.833 200.604 205.749 201.161 206.048 203.99C205.708 204.209 205.419 204.498 205.2 204.838C205.2 204.838 205.412 207.583 207.515 209.296C209.618 211.009 211.416 212.041 212.487 211.611C212.651 211.961 212.794 212.319 212.917 212.685C212.917 212.685 214.506 208.654 215.577 205.138C216.648 201.537 217.592 202.048 218.019 197.204C218.446 192.359 223.107 184.04 223.107 184.04L226.287 176.931L221.1 172.9L213.768 173.672V173.674Z" fill="#B6903C"/>
<path fill-rule="evenodd" clip-rule="evenodd" d="M223.415 180.662C222.346 181.76 221.358 182.935 220.461 184.178C219.09 186.067 218.019 187.78 216.004 188.512C213.988 189.244 212.702 189.238 212.829 191.256C212.957 193.275 214.845 194.128 215.916 195.157C217.075 196.229 218.019 198.029 217.505 200.047C218.146 199.748 219.305 199.403 220.377 197.088C221.448 194.773 228.941 180.665 228.941 180.665H223.415V180.662Z" fill="#685026"/>
<path fill-rule="evenodd" clip-rule="evenodd" d="M252.968 148.115C252.968 148.115 253.61 146.402 252.968 145.159C252.324 143.873 248.423 143.443 246.492 141.984C244.477 140.483 242.032 139.44 240.016 140.099C240.316 139.37 241.517 137.781 240.531 137.439C239.587 137.139 236.073 138.725 235.129 139.454C234.185 140.184 232.039 141.04 231.613 141.558C231.186 142.075 230.454 143.059 230.024 142.629C229.594 142.329 229.382 141.558 228.653 141.984C227.924 142.411 224.413 145.286 223.766 146.959C223.118 148.633 221.663 152.364 217.29 156.607C212.917 160.85 211.029 163.597 212.315 165.183C213.601 166.769 214.203 165.612 214.418 166.983C214.583 168.329 214.51 169.694 214.203 171.014C213.689 173.244 212.832 175.345 213.988 175.774C216.948 176.718 219.823 174.926 220.464 175.475C221.75 176.631 219.735 180.792 222.779 181.606C225.869 182.454 228.913 180.876 228.913 180.876L240.146 174.83L250.953 169.129L256.482 158.192L253.516 149.06L252.951 148.115H252.968Z" fill="#D4B968"/>
<path fill-rule="evenodd" clip-rule="evenodd" d="M242.368 174.231C242.368 174.231 240.48 171.359 242.798 168.826C245.116 166.294 248.414 165.225 249.7 163.639C249.456 163.337 249.127 163.114 248.756 162.998C249.61 161.47 250.913 160.242 252.487 159.479C251.846 158.837 250.987 158.323 250.045 158.323C247.942 158.323 246.653 159.609 244.725 159.609C242.84 159.609 242.625 158.665 242.625 158.665C242.625 158.665 245.8 158.365 245.497 156.949C245.198 155.448 244.649 155.448 244.649 155.448C244.649 155.448 250.78 152.904 251.851 151.547C252.923 150.19 252.796 148.587 253.01 147.946C253.737 147.946 257.983 145.716 259.698 146.66C261.414 147.604 260.213 150.176 260.213 150.176C260.213 150.176 265.405 146.272 268.051 142.445C270.366 142.66 271.443 140.859 273.139 140.859C275.242 140.859 278.544 143.731 279.185 149.862C279.615 153.379 280.257 155.394 279.615 161.613C279.315 165.129 279.4 172.637 280.463 176.362C281.189 179.322 282.905 179.022 282.905 179.022C282.642 179.924 282.12 180.729 281.404 181.337C280.245 182.409 280.118 185.241 280.245 186.312C280.416 187.095 280.631 187.868 280.89 188.627C280.89 188.627 279.519 190.213 279.174 191.287C278.874 192.358 277.461 193.088 276.429 193.088C275.398 193.088 275.915 193 274.544 193.088C273.173 193.175 272.743 193.387 271.884 193.088C271.025 192.788 270.383 192.443 270.728 189.696C271.028 186.951 260.136 180.563 260.136 180.563L242.328 174.217L242.368 174.231Z" fill="#CCA849"/>
<path fill-rule="evenodd" clip-rule="evenodd" d="M221.914 201.33C221.914 201.33 225.815 206.52 241.854 206.52C249.486 206.52 252.145 205.791 253.726 205.361C255.441 204.931 261.872 202.404 268.348 194.77C274.179 187.867 272.893 185.037 272.893 185.037L269.501 184.523L258.477 186.024L225.857 199.917L221.9 201.33H221.914Z" fill="#585136"/>
<path fill-rule="evenodd" clip-rule="evenodd" d="M233.877 202.616C233.877 202.616 219.984 205.706 219.984 196.915C219.984 188.339 228.56 179.333 230.705 177.747C232.935 176.159 238.252 174.355 238.252 174.355H251.074L253.516 180.831L252.445 194.809L233.877 202.614V202.616Z" fill="#252211"/>
<path fill-rule="evenodd" clip-rule="evenodd" d="M246.698 176.976C246.698 176.976 244.041 174.531 237.995 177.824C231.949 181.117 227.059 188 226.759 194.249C226.46 199.778 231.304 203.897 238.852 204.112C244.468 204.324 247.857 203.682 249.573 203.264C249.144 202.749 246.913 199.962 246.913 199.962L246.701 176.979L246.698 176.976Z" fill="#C3B378"/>
<path fill-rule="evenodd" clip-rule="evenodd" d="M244.084 178.344C244.084 178.344 243.442 177.829 241.54 178.858C239.954 179.706 237.639 181.948 235.838 183.534C234.679 184.478 233.95 184.905 233.294 185.634C230.635 188.808 228.404 193.998 229.693 196.57C230.982 199.143 235.225 202.102 246.031 200.087L244.053 178.347L244.084 178.344Z" fill="#E6D89C"/>
<path fill-rule="evenodd" clip-rule="evenodd" d="M240.567 183.664C240.567 183.664 238.852 186.324 238.852 190.569C238.852 194.9 241.297 201.803 250.302 202.317C257.205 202.747 261.835 192.37 266.853 188.339C270.669 185.252 272.984 185.165 272.984 185.165C272.984 185.165 269.083 180.925 258.664 175.433C248.372 169.901 236.836 169.172 230.575 177.663C233.535 177.448 243.097 175.003 243.097 175.003L247.773 176.504L240.567 183.667V183.664Z" fill="#252211"/>
<path fill-rule="evenodd" clip-rule="evenodd" d="M254.031 189.28C253.731 188.639 253.516 187.779 254.76 187.567C256.004 187.355 256.561 187.48 256.99 188.415C257.42 189.351 257.838 190.131 257.202 190.518C256.561 190.86 254.887 190.518 254.028 189.275L254.031 189.28ZM252.015 183.234C252.015 183.234 251.586 183.534 251.801 182.934C251.885 182.208 252.445 180.919 253.816 181.221C255.187 181.524 254.89 183.022 254.664 183.452C254.438 183.881 253.293 184.608 252.434 184.3C252.325 184.272 252.224 184.219 252.139 184.145C252.055 184.07 251.989 183.977 251.947 183.873C251.905 183.769 251.889 183.656 251.899 183.544C251.908 183.432 251.945 183.324 252.004 183.228L252.015 183.234Z" fill="#6F674D"/>
<path fill-rule="evenodd" clip-rule="evenodd" d="M135.944 185.976C135.944 185.976 139.336 188.52 143.276 188.421C147.177 188.334 152.195 184.306 154.51 181.73C155.88 180.23 157.054 178.644 158.326 177.4C159.4 176.329 160.126 175.814 160.641 175.085C161.37 174.237 162.142 172.643 162.529 172.125C161.585 172.855 160.214 174.144 158.798 175C157.427 175.848 154.467 177.442 153.266 177.872C152.11 178.302 140.102 184.656 140.102 184.656L135.944 185.976Z" fill="#AC924C"/>
<path fill-rule="evenodd" clip-rule="evenodd" d="M141.128 154.292C141.128 154.292 143.013 153.006 146.66 152.189C150.176 151.341 157.251 150.688 157.251 150.688L163.083 153.232L165.398 162.023L161.158 171.159L155.756 174.551L149.622 164.688L141.142 154.309L141.128 154.292Z" fill="#9F8E57"/>
<path fill-rule="evenodd" clip-rule="evenodd" d="M133.496 162.139L131.478 163.646C131.478 163.646 131.995 162.701 132.422 159.83C132.849 156.958 135.082 149.967 138.341 145.936C141.6 141.906 141.515 142.12 141.515 142.12C141.215 142.066 140.907 142.075 140.611 142.149C140.316 142.223 140.039 142.358 139.8 142.547C140.229 141.598 142.974 138.206 145.719 136.51C148.463 134.814 149.535 134.279 152.407 135.662C155.278 137.044 156.008 137.762 158.111 137.677C160.214 137.592 162.012 135.362 162.012 135.362C162.012 135.362 162.441 136.733 160.855 139.907C159.27 143.082 153.009 149.555 153.009 149.555L139.972 158.473L133.496 162.147V162.139Z" fill="#EAC970"/>
<path fill-rule="evenodd" clip-rule="evenodd" d="M143.141 153.22C143.141 153.22 152.576 154.507 155.448 151.849C155.533 152.149 155.878 152.149 155.878 152.364C155.855 152.526 155.779 152.676 155.663 152.791C155.975 152.741 156.291 152.713 156.607 152.706C156.985 152.818 157.373 152.89 157.766 152.921C158.082 152.914 158.398 152.885 158.71 152.833C158.68 153.046 158.608 153.251 158.497 153.436C158.386 153.62 158.24 153.781 158.065 153.907C158.495 153.907 158.913 153.992 158.913 154.334C158.913 154.676 158.998 155.708 158.484 155.923C158.058 156.041 157.604 156.01 157.198 155.835C157.232 156.647 157.452 157.44 157.842 158.153C158.69 159.739 160.499 161.545 162.93 161.025C162.93 161.025 164.213 164.112 158.812 170.972C158.085 171.916 157.311 173.202 156.369 174.273C155.998 175.084 155.713 175.932 155.521 176.803C155.521 176.803 164.657 173.287 167.272 165.268C169.932 157.206 170.446 149.274 169.932 141.857C169.844 139.754 169.502 138.256 168.988 137.182C167.702 134.522 164.098 134.952 162.642 136.453C160.539 138.556 157.022 143.785 152.135 147.386C147.16 150.987 146.948 151.626 143.129 153.22H143.141Z" fill="#D7BC6B"/>
<path fill-rule="evenodd" clip-rule="evenodd" d="M131.823 164.798C131.823 164.798 130.022 165.87 129.078 169.886C128.134 174.002 129.926 179.019 130.963 180.605C132.001 182.191 134.355 186.524 139.24 186.739C140.449 186.733 141.644 186.485 142.756 186.01C144.461 185.228 146.061 184.234 147.516 183.05C149.619 181.464 151.332 180.094 151.118 179.964C150.603 179.749 138.169 169.457 138.169 169.457L133.493 164.239L131.82 164.804L131.823 164.798Z" fill="#585136"/>
<path fill-rule="evenodd" clip-rule="evenodd" d="M143.576 181.863C143.576 181.863 146.106 181.651 147.607 180.707C149.108 179.763 138.816 169.559 138.816 169.559L139.545 180.583L143.576 181.863Z" fill="#453A25"/>
<path fill-rule="evenodd" clip-rule="evenodd" d="M132.637 164.024C132.637 164.024 131.351 166.469 131.351 167.113C131.136 169.214 131.78 175.817 132.295 177.917C132.809 180.147 135.596 183.534 139.2 183.534C141.428 183.534 144.517 182.163 144.517 181.821C144.517 181.391 141.343 180.973 140.486 179.375C139.972 178.527 139.757 176.419 139.638 174.287C139.554 172.917 139.554 171.416 140.068 170.895C141.227 169.609 141.439 165.921 141.439 165.921L145.555 158.274H140.142L133.666 162.305L132.637 164.024Z" fill="#84754B"/>
<path fill-rule="evenodd" clip-rule="evenodd" d="M131.051 166.384C131.051 166.384 135.291 160.768 139.113 159.479C142.934 158.19 144.644 158.964 144.644 158.964L142.414 164.668L139.24 168.185L139.455 169.985C139.455 169.985 138.937 174.746 142.112 178.047C145.286 181.349 147.644 181.221 149.017 181.221C150.391 181.221 154.334 180.063 156.35 175.302C158.15 170.845 159.651 165.126 156.05 159.394C152.531 153.69 146.315 153.469 145.114 153.469C143.912 153.469 134.48 153.941 131.051 166.376V166.384Z" fill="#252211"/>
<path fill-rule="evenodd" clip-rule="evenodd" d="M239.923 185.464C238.337 184.735 239.838 180.277 241.424 178.904C243.01 177.53 245.025 175.947 248.544 175.729C249.828 175.644 251.071 176.459 250.859 177.318C250.56 178.904 248.329 181.134 246.314 182.72C243.527 184.907 241.724 186.278 239.923 185.464Z" fill="#F7F7E7"/>
<path fill-rule="evenodd" clip-rule="evenodd" d="M154.162 161.152C155.321 161.068 156.822 162 157.121 163.255C157.421 164.626 156.392 167.371 154.162 167.371C152.361 167.371 151.417 165.141 151.417 164.499C151.437 163.971 151.585 163.457 151.847 162.998C151.932 162.868 152.146 161.367 154.162 161.152Z" fill="#F8F6DE"/>
<path fill-rule="evenodd" clip-rule="evenodd" d="M137.439 162.139C137.439 162.139 134.48 163.51 133.109 166.379C132.129 168.497 131.833 170.868 132.261 173.163C132.476 174.234 133.547 176.891 134.276 177.835C135.006 178.779 135.992 179.424 136.721 179.336C137.451 179.248 138.949 177.321 138.949 176.165C138.949 175.008 139.036 170.118 140.45 167.458C141.693 164.801 137.448 162.142 137.448 162.142L137.439 162.139Z" fill="#D4C38B"/>
<path fill-rule="evenodd" clip-rule="evenodd" d="M137.869 161.924C137.355 162.224 136.498 162.653 136.71 163.21C136.925 163.725 138.725 164.058 139.37 165.313C140.099 166.599 140.099 167.97 139.884 168.615C140.445 168.349 140.953 167.985 141.385 167.541C142.329 166.469 143.486 165.014 144.472 165.014C145.117 165.014 145.758 165.313 146.36 165.313C147.304 165.313 148.246 165.014 148.376 164.027C148.588 162.741 146.575 161.582 145.416 161.797C145.631 160.949 145.931 159.697 144.987 158.837C144.042 157.978 141.086 159.482 140.441 159.912C139.797 160.341 137.869 161.927 137.869 161.927V161.924Z" fill="#E2D59D"/>
<path fill-rule="evenodd" clip-rule="evenodd" d="M206.006 252.015L212.352 250.141L214.152 251.427C214.152 251.427 215.436 254.172 217.454 254.514C216.809 255.885 215.136 257.058 215.224 258.03C215.311 259.003 216.168 259.746 216.168 259.746C216.168 259.746 210.463 269.179 221.699 278.685C219.04 279.756 215.653 281.229 213.853 282.077C215.136 282.376 217.881 282.925 219.04 283.965C220.198 285.005 220.198 285.336 221.27 285.98C222.341 286.625 222.983 287.481 222.771 287.866C222.041 287.436 219.596 286.153 219.17 287.351C218.743 288.55 208.578 288.081 208.578 288.081L191.426 291.382C191.426 291.382 192.067 289.666 190.267 288.081C188.167 286.195 185.594 288.165 182.85 286.065C179.249 283.321 179.119 280.146 177.962 278.948C179.119 278.218 181.479 277.147 187.095 276.404C186.881 275.974 186.151 274.688 186.581 273.532C187.095 272.031 189.238 271.087 188.596 269.292C189.54 269.077 189.967 269.077 192.328 266.117C194.558 263.158 195.929 262.516 197.644 262.301C199.36 262.087 200.389 262.301 203.564 259.342C205.791 257.242 205.064 255.441 205.064 255.441C205.064 255.441 206.52 254.969 206.009 252.01L206.006 252.015Z" fill="#CBAC5A"/>
<path fill-rule="evenodd" clip-rule="evenodd" d="M187.268 252.968C187.353 252.539 187.697 252.324 190.012 252.539C192.328 252.753 206.992 251.168 210.981 250.953C215.012 250.653 229.204 250.865 236.11 252.324C243.015 253.782 250.003 255.498 253.389 256.355C256.781 257.299 257.85 257.638 257.72 258.067C257.635 258.497 256.872 258.915 256.434 258.797C256.007 258.712 244.771 255.28 241.3 254.557C237.828 253.833 225.818 251.897 219.252 252.013C213.12 252.1 210.675 251.928 205.488 252.527C200.299 253.172 191.723 254.028 189.15 253.686C186.606 253.387 187.132 253.387 187.262 252.957L187.268 252.968Z" fill="#D6BC6F"/>
<path fill-rule="evenodd" clip-rule="evenodd" d="M221.784 286.577C221.784 286.577 230.575 291.337 233.75 297.169C236.065 301.499 232.379 303.644 232.379 303.644C232.379 303.644 237.353 303.644 236.709 306.389C236.409 308.102 228.133 312.732 222.601 315.177C216.985 317.622 217.199 317.495 214.455 317.922C211.795 318.352 204.505 317.074 203.004 319.208C201.503 321.342 202.156 323.541 202.574 323.883C203.004 324.183 206.478 324.613 206.478 324.613C206.478 324.613 205.749 326.628 198.546 326.843C191.344 327.058 189.54 327.569 189.111 328.344C188.681 329.07 190.482 328.644 193.786 329.192C197.088 329.706 201.718 330.04 201.718 330.04C201.718 330.04 200.217 331.326 196.316 332.355C191.855 333.511 184.865 334.585 182.765 335.871C183.836 336.601 185.425 337.672 186.157 337.757C184.356 338.186 181.824 339.13 181.397 339.472C182.038 339.902 182.898 340.417 182.898 340.417C182.898 340.417 179.294 344.747 177.194 345.821C175.093 346.895 163.001 352.509 158.84 351.438C148.463 348.693 147.177 337.33 144.647 336.473C140.831 335.187 139.031 337.757 135.642 335.956C137.143 334.885 137.959 334.243 139.545 333.514C137.829 332.666 128.954 327.038 128.954 327.038C128.025 325.015 126.995 323.04 125.867 321.122C124.151 318.162 121.627 314.216 119.733 310.742C115.617 303.11 115.403 299.594 111.671 295.263C112.316 294.415 114.543 294.534 114.543 294.534L145.806 304.826L201.24 306.432L215.656 285.851L221.787 286.58L221.784 286.577Z" fill="#DFC677"/>
<path fill-rule="evenodd" clip-rule="evenodd" d="M139.67 317.964C140.004 318.336 140.394 318.655 140.826 318.908C141.9 319.638 143.486 320.497 144.557 321.78C144.986 321.139 146.058 319.98 147.949 321.78C149.84 323.581 152.189 322.297 153.65 322.724C155.151 323.242 155.236 323.454 155.236 323.454C155.236 323.454 156.084 322.724 157.981 321.953C159.14 321.523 160.511 321.223 162.012 320.797C163.382 320.497 164.883 320.067 165.915 320.067C166.859 320.709 170.246 324.307 183.839 318.996C196.661 314.021 199.617 313.464 201.763 314.233C201.978 313.719 202.193 312.732 205.494 312.862C205.494 311.491 202.749 306.816 202.749 306.816L187.613 301.629H179.333L154.507 306.174L140.749 314.024L139.678 317.981L139.67 317.964Z" fill="#C4A859"/>
<path fill-rule="evenodd" clip-rule="evenodd" d="M131.393 309.261C131.393 309.261 131.693 311.576 135.124 314.021C138.516 316.463 139.582 317.922 139.582 317.922C139.582 317.922 140.226 317.074 140.741 316.209C141.255 315.265 141.685 314.193 142.541 313.894C144.257 313.165 148.158 314.536 149.017 314.321C149.747 314.109 149.532 312.608 150.303 312.608C152.104 312.52 153.26 313.764 153.905 313.764C154.549 313.764 156.132 313.679 156.347 313.337C156.562 312.995 156.647 309.433 159.092 307.718C161.751 305.832 165.011 306.646 165.876 307.076C165.876 307.718 165.96 309.306 167.676 309.391C169.392 309.476 169.562 309.176 171.068 309.691C172.575 310.205 174.37 309.606 175.184 312.133C175.913 311.921 177.629 311.706 177.199 309.261C178.047 308.619 178.788 308.19 180.591 305.66C181.021 305.018 181.747 304.289 182.307 303.345C183.808 303.345 185.609 303.045 188.008 305.145C187.279 305.66 186.849 305.993 186.637 306.516C187.265 307.138 187.838 307.812 188.35 308.532C188.995 309.38 189.425 310.42 190.239 310.635C192.039 311.149 194.999 310.42 198.3 310.635C201.475 310.85 204.132 312.006 205.291 312.735C205.72 312.523 205.72 312.435 206.792 312.65C207.863 312.865 208.677 312.95 207.521 311.579C208.162 311.878 208.892 312.523 209.536 311.878C210.181 311.234 210.692 310.293 212.493 310.078C214.294 309.863 214.938 310.163 215.667 308.277C216.611 305.962 213.352 305.962 213.352 305.962C213.352 305.962 214.853 304.588 216.527 302.788C218.542 300.902 220.857 298.457 221.414 295.456C222.358 289.924 216.956 289.197 216.956 289.197L190.756 297.259L158.724 295.67L131.41 309.264L131.393 309.261Z" fill="#927D49"/>
<path fill-rule="evenodd" clip-rule="evenodd" d="M107.853 233.577C107.853 233.577 107.005 234.648 106.482 237.178C105.959 239.708 106.182 239.408 105.752 241.209C105.323 243.01 100.045 260.933 102.024 266.98C104.003 273.026 107.429 275.256 109.571 280.143C110.001 281.215 110.419 281.859 110.643 282.803C111.372 285.975 110.73 288.42 111.587 291.594C111.886 292.666 112.661 293.909 113.817 295.195C116.361 297.853 120.508 300.382 122.297 302.183C124.824 304.843 128.428 310.247 133.016 310.759C135.461 311.059 138.935 310.03 141.807 308.317C144.351 306.728 145.922 304.501 148.591 303.229C150.476 302.285 152.491 301.943 154.292 301.513C158.023 300.784 161.412 300.665 163.428 301.083C166.514 301.728 173.804 303.958 177.844 303.958C181 303.907 184.139 303.475 187.191 302.672C193.322 300.871 200.74 297.782 205.63 296.411C208.502 295.563 210.817 295.34 213.177 294.825C217.208 293.881 220.594 292.595 222.525 290.15C221.239 288.649 219.653 286.334 211.074 286.419C201.342 286.633 190.106 292.035 184.574 292.895C179.042 293.754 176.642 294.48 170.466 292.25C164.411 289.997 164.211 288.508 164.211 288.508C164.211 288.508 157.853 284.061 155.194 272.726C152.534 261.391 155.194 253.132 162.099 245.282C163.9 243.267 163.47 241.466 163.47 241.466C163.47 241.466 168.015 235.335 166.772 229.594C165.401 223.89 156.61 225.049 156.61 225.049L107.855 233.577H107.853Z" fill="#6E6342"/>
<path fill-rule="evenodd" clip-rule="evenodd" d="M115.185 252.66C114.807 253.371 114.629 254.171 114.67 254.975C114.755 256.131 115.1 257.632 118.571 261.021C121.531 263.978 120.886 267.28 120.886 267.28C120.886 267.28 122.376 267.579 126.418 265.688C129.592 264.187 130.658 266.847 130.658 266.847C131.582 266.363 132.584 266.043 133.618 265.903C134.554 265.817 135.461 265.527 136.275 265.055C136.275 265.055 140.006 268.871 143.265 270.672C146.225 272.26 147.94 273.332 149.399 272.26C150.77 271.316 150.77 269.386 150.682 268.529C150.342 267.739 149.911 266.99 149.399 266.299C148.455 264.928 146.954 263.339 146.855 262.059C146.64 259.102 149.085 255.583 148.568 254.726C148.051 253.87 146.126 253.655 141.366 255.371C136.436 256.999 115.165 252.669 115.165 252.669L115.185 252.66Z" fill="#39331F"/>
<path fill-rule="evenodd" clip-rule="evenodd" d="M126.418 271.827C126.418 271.827 123.976 269.512 124.832 258.276C125.869 258.261 126.905 258.362 127.919 258.576C127.919 258.576 129.25 267.282 126.418 271.827Z" fill="#292311"/>
<path fill-rule="evenodd" clip-rule="evenodd" d="M109.012 225.001C109.352 224.749 109.668 224.465 109.956 224.153C109.108 225.739 105.193 232.085 108.367 242.077C111.541 252.024 119.515 259.441 129.335 259.786C139.155 260.131 144.317 255.326 150.219 248.123C152.534 245.251 155.194 241.647 157.551 239.205C161.067 235.386 163.812 234.315 163.812 230.629C163.812 223.082 156.092 219.693 144.729 216.306C133.366 212.92 123.117 213.338 117.8 215.656C112.613 218.183 110.382 220.843 109.009 225.004L109.012 225.001Z" fill="#252211"/>
<path fill-rule="evenodd" clip-rule="evenodd" d="M145.501 275.214L146.349 274.784C146.349 274.784 146.561 271.392 147.935 271.483C149.306 271.698 149.95 273.501 149.82 274.143C149.735 274.784 149.393 275.858 148.02 275.728C146.219 275.771 145.492 275.214 145.492 275.214H145.501Z" fill="#3F3824"/>
<path fill-rule="evenodd" clip-rule="evenodd" d="M141.685 260.806C141.685 260.806 142.533 260.507 143.57 261.535C144.418 261.535 148.116 261.106 149.275 261.835C150.433 262.564 150.776 263.206 150.776 263.206C150.776 263.206 146.445 264.15 144.085 263.206C141.685 262.392 141.685 260.806 141.685 260.806Z" fill="#2D2815"/>
<path fill-rule="evenodd" clip-rule="evenodd" d="M160.768 261.448C160.768 261.233 158.453 259.647 156.008 259.13C155.578 259.045 155.49 259.345 155.16 259.345C154.945 259.26 154.86 258.616 154.86 258.616L153.469 259.348C153.469 259.348 153.255 259.647 153.984 260.196C154.625 260.71 155.7 261.14 155.999 261.996C156.299 262.853 156.299 263.153 156.429 263.283C156.514 263.367 158.015 263.283 158.744 262.853C159.473 262.423 160.847 261.722 160.759 261.44L160.768 261.448Z" fill="#82764F"/>
<path fill-rule="evenodd" clip-rule="evenodd" d="M139.113 270.154C139.113 270.154 139.54 267.198 142.414 267.068C145.371 266.853 145.931 269.725 145.931 269.725L144.215 271.44C144.215 271.398 142.929 269.597 139.127 270.154H139.113Z" fill="#2D2816"/>
<path fill-rule="evenodd" clip-rule="evenodd" d="M157.766 257.417C157.766 257.417 156.177 259.133 152.664 259.648C152.364 259.218 151.72 258.361 152.664 256.99C153.608 255.62 154.679 255.19 155.75 255.617C156.223 255.693 156.664 255.904 157.021 256.223C157.378 256.542 157.637 256.956 157.766 257.417Z" fill="#574F35"/>
<path fill-rule="evenodd" clip-rule="evenodd" d="M164.239 259.52C164.327 259.091 164.027 259.006 164.239 258.791C164.451 258.576 165.613 258.149 165.828 258.361C165.912 258.449 165.828 258.791 165.828 259.209C165.828 259.628 165.828 260.057 165.613 260.365C165.313 260.795 164.457 261.01 164.027 260.883C163.597 260.755 163.512 260.153 163.512 260.035C163.724 259.95 164.239 259.735 164.239 259.52ZM171.56 254.89C171.56 254.675 172.289 254.246 172.719 254.246C173.361 254.246 173.361 254.76 173.448 254.89C173.66 254.975 173.66 254.802 173.875 255.19C174.09 255.577 174.392 256.261 174.175 256.691C173.957 257.12 173.103 257.417 172.891 257.332C172.592 257.117 171.648 255.19 171.56 254.89Z" fill="#82764F"/>
<path fill-rule="evenodd" clip-rule="evenodd" d="M156.822 260.507C156.822 260.507 157.766 260.719 159.052 261.793C158.622 262.092 157.978 262.435 157.978 262.435C157.978 262.435 157.893 261.448 156.822 260.504V260.507Z" fill="#6E6342"/>
<path fill-rule="evenodd" clip-rule="evenodd" d="M154.722 251.071C154.507 250.859 155.363 250.345 155.878 250.43C156.392 250.514 156.607 250.859 157.164 250.944C157.721 251.029 157.808 250.729 158.012 250.514C158.215 250.3 158.956 250.43 159.083 250.514C159.162 250.609 159.234 250.709 159.298 250.814C159.307 250.651 159.349 250.491 159.423 250.346C159.496 250.2 159.599 250.07 159.725 249.966C159.889 249.845 160.079 249.763 160.28 249.726C160.48 249.689 160.687 249.697 160.884 249.751C160.968 250.051 161.398 251.122 161.313 251.337C161.229 251.552 159.942 251.854 159.725 251.637C159.94 252.154 160.884 253.225 161.011 253.437C161.138 253.649 160.067 254.167 159.64 254.082C159.041 254.039 155.352 251.894 154.71 251.08L154.722 251.071ZM160.338 243.954C160.259 243.738 160.107 243.556 159.908 243.439C159.609 243.355 158.622 243.439 158.622 243.954C158.622 244.468 159.47 247.346 160.423 248.844C161.497 250.345 162.224 251.586 162.953 251.931C163.182 252.035 163.442 252.049 163.68 251.969C163.919 251.889 164.119 251.722 164.239 251.501C164.324 251.286 164.539 249.7 164.454 245.969C164.369 242.238 164.239 238.637 164.024 238.422C163.809 238.207 162.953 238.21 162.653 238.637C162.354 239.064 160.423 243.312 160.335 243.954H160.338Z" fill="#585136"/>
<path fill-rule="evenodd" clip-rule="evenodd" d="M156.522 265.909C156.522 265.909 155.021 264.964 153.563 265.609C152.192 266.253 152.276 268.783 152.276 268.783C152.585 268.904 152.918 268.948 153.247 268.91C153.576 268.873 153.891 268.755 154.165 268.568C155.109 267.927 156.307 266.855 156.522 265.911V265.909Z" fill="#574F35"/>
<path fill-rule="evenodd" clip-rule="evenodd" d="M159.352 269.298C159.267 268.45 158.504 268.45 158.504 268.011C158.556 267.802 158.678 267.616 158.848 267.484C159.019 267.352 159.229 267.281 159.445 267.282C159.875 267.282 160.293 267.797 160.819 268.13C161.333 268.43 162.105 268.978 162.19 269.631C162.274 270.284 161.342 272.073 160.304 272.073C159.267 272.073 159.575 270.143 159.36 269.286L159.352 269.298ZM167.628 268.139C167.628 268.139 165.912 268.653 166.04 268.139C166.167 267.624 166.557 267.497 167.114 267.497C167.397 267.201 167.777 267.017 168.185 266.98C168.418 266.968 168.647 267.045 168.827 267.195C168.827 267.195 169.986 266.68 170.328 266.98C170.67 267.279 170.415 267.279 170.627 267.624C170.897 268.007 171.074 268.447 171.144 268.91C171.144 269.252 169.858 269.982 168.827 269.854C167.628 269.597 167.84 268.353 167.628 268.139ZM177.618 266.208C177.618 266.208 178.132 266.508 177.705 266.853C177.406 267.152 175.905 267.701 174.616 267.797C173.329 267.797 172.173 268.009 172.173 267.582C172.173 267.155 173.245 266.296 173.886 266.081C174.015 265.92 174.178 265.79 174.364 265.701C174.55 265.612 174.754 265.566 174.96 265.566C175.475 265.566 177.488 265.352 178.047 265.267C178.562 265.179 178.991 265.479 178.689 265.908C178.562 266.208 177.618 266.208 177.618 266.208ZM180.577 252.968C180.577 252.968 179.933 254.339 179.206 254.339C178.477 254.254 178.477 254.039 178.477 253.824C178.477 253.525 179.206 252.753 179.118 252.538C178.906 252.538 178.389 252.538 178.477 252.024C178.477 251.594 179.206 251.08 179.848 251.176C180.333 250.777 180.936 250.552 181.564 250.534C182.293 250.534 182.934 250.746 182.934 251.176C182.934 251.605 182.087 252.547 181.776 252.764C181.434 253.106 181.004 253.33 180.577 252.976V252.968ZM170.8 278.309C170.8 278.309 169.952 278.397 169.952 278.823C169.952 279.038 170.164 279.038 170.466 278.911C170.64 278.901 170.813 278.872 170.981 278.823C171.065 278.911 171.065 279.338 171.71 279.338C172.239 279.266 172.749 279.092 173.211 278.823C173.725 278.611 174.155 278.394 174.155 277.975C173.94 277.246 173.51 276.901 172.869 276.901C172.54 276.88 172.212 276.955 171.925 277.116C171.925 277.116 171.71 276.687 170.981 277.116C170.251 277.546 170.336 277.546 170.551 277.761C170.935 278.103 170.808 278.326 170.808 278.326L170.8 278.309ZM165.955 282.769C165.955 282.555 167.026 282.125 167.326 282.255C167.625 282.34 168.482 283.968 168.482 284.14C168.482 284.355 167.41 284.87 166.981 284.87C166.551 284.87 165.825 284.14 165.825 284.022C165.825 283.937 166.339 283.81 166.339 283.722C166.466 283.51 165.955 282.993 165.955 282.778V282.769ZM162.563 276.508C162.778 276.424 162.778 276.209 163.077 275.994C163.171 275.932 163.278 275.891 163.39 275.877C163.501 275.862 163.615 275.873 163.722 275.909C163.797 275.774 163.902 275.658 164.028 275.568C164.154 275.479 164.299 275.419 164.451 275.392C164.965 275.307 165.395 275.392 165.299 275.607C165.299 276.251 165.729 276.678 165.729 277.192C165.729 277.707 165.429 278.351 164.358 278.781C163.286 279.081 161.828 279.081 161.613 278.996C161.398 278.911 161.183 278.052 161.398 277.622C161.613 277.192 162.212 276.723 162.557 276.508H162.563Z" fill="#82764F"/>
<path fill-rule="evenodd" clip-rule="evenodd" d="M163.928 276.8C163.928 276.8 163.199 277.229 163.199 277.444C163.134 277.652 163.105 277.869 163.114 278.086C163.114 278.213 164.058 278.001 164.185 277.871C164.228 277.786 163.928 277.023 163.928 276.8Z" fill="#6E6342"/>
<path fill-rule="evenodd" clip-rule="evenodd" d="M157.551 274.784C157.978 274.872 158.707 274.784 159.264 274.999C159.694 275.214 159.993 275.644 159.564 276.158C159.134 276.672 158.716 277.444 157.763 277.314C156.692 277.229 155.663 276.672 155.663 276.243C155.645 275.971 155.681 275.698 155.769 275.441C155.858 275.183 155.996 274.945 156.177 274.742C156.607 274.4 156.819 274.615 157.548 274.784H157.551Z" fill="#585136"/>
<path fill-rule="evenodd" clip-rule="evenodd" d="M157.037 275.214C157.037 275.214 155.666 276.285 155.321 276.802C154.891 277.317 152.791 279.974 152.149 280.531C152.362 280.155 152.605 279.797 152.876 279.46C152.028 280.002 151.392 280.819 151.075 281.775C150.561 283.363 153.95 284.22 156.177 284.864C158.405 285.509 159.267 285.712 159.267 285.712C158.447 284.48 157.743 283.174 157.164 281.811C156.316 279.796 155.878 279.581 156.435 278.637C156.864 277.693 157.509 277.051 157.509 276.322C157.251 275.644 157.037 275.214 157.037 275.214Z" fill="#574F35"/>
<path fill-rule="evenodd" clip-rule="evenodd" d="M108.152 278.603C108.464 278.661 108.784 278.661 109.096 278.603C109.738 278.516 116.429 276.059 123.419 276.5C128.652 276.816 133.839 277.669 138.898 279.044C147.689 281.359 158.622 285.947 165.697 288.564C167.583 289.291 169.429 290.58 170.785 291.091C176.19 293.194 176.402 293.195 179.576 293.751C183.308 294.266 187.124 293.022 191.112 292.166C195.999 291.091 204.361 290.577 211.693 289.506C214.064 289.177 216.403 288.647 218.683 287.92C218.683 287.92 212.852 293.751 198.871 295.852C193.22 296.71 187.478 296.782 181.807 296.066C177.346 295.637 174.389 294.992 172.159 294.351C169.629 293.621 164.44 291.691 158.051 290.111C153.591 288.952 148.616 288.095 142.915 287.024C128.849 284.449 113.585 281.492 108.147 278.62L108.152 278.603Z" fill="#252211"/>
<path fill-rule="evenodd" clip-rule="evenodd" d="M92.3709 252.103C88.9789 254.975 85.3806 257.72 81.867 260.377L71.2755 268.515C67.6743 271.172 64.158 273.916 60.554 276.576C56.95 279.236 53.3516 281.763 49.53 284.208C52.922 281.336 56.5203 278.677 60.1215 276.062C63.7227 273.447 67.4567 270.883 70.9307 268.232L81.5222 260.083C85.1658 257.426 88.6821 254.681 92.3709 252.109V252.103ZM73.633 282.119C73.633 282.119 77.449 278.945 82.2091 274.487C88.1253 268.958 95.3729 261.88 97.6879 260.597L73.6301 282.122L73.633 282.119Z" fill="#CFB66C"/>
<path fill-rule="evenodd" clip-rule="evenodd" d="M73.633 282.117C75.5212 280.231 77.5366 278.388 79.552 276.585L82.6387 273.928C83.5828 273.08 84.657 272.127 85.5982 271.183C87.4836 269.298 89.3294 267.279 91.2148 265.352C92.1493 264.382 93.1374 263.466 94.1744 262.607C94.6928 262.148 95.2686 261.759 95.8873 261.448C96.4046 261.148 96.9614 260.6 97.6879 260.504C97.2611 261.148 96.7466 261.448 96.317 262.005C95.8025 262.435 95.3729 262.949 94.946 263.376C94.0019 264.32 92.9306 265.176 91.9865 266.036C89.9711 267.751 87.8709 269.428 85.8555 271.223C83.8401 273.018 81.9547 274.954 79.9364 276.754C77.7514 278.6 75.736 280.401 73.633 282.125V282.117ZM99.2765 264.964C99.2765 264.964 85.2986 278.645 82.4239 280.873L99.2765 264.964Z" fill="#CFB66C"/>
<path fill-rule="evenodd" clip-rule="evenodd" d="M99.2765 264.964C98.019 266.42 96.6709 267.795 95.24 269.08L91 273.111C89.6291 274.482 88.3401 275.855 86.8844 277.226C85.3834 278.513 84.0125 279.77 82.4239 280.958L86.5395 276.927C87.9133 275.556 89.4142 274.4 90.8728 273.026L94.9884 268.995C96.4018 267.582 97.7755 266.208 99.2765 264.964ZM99.9181 272.382C98.6297 275.978 97.1115 279.487 95.3728 282.888C91.7717 290.093 86.3699 299.096 84.0096 303.687L99.9181 272.382Z" fill="#CFB66C"/>
<path fill-rule="evenodd" clip-rule="evenodd" d="M99.9181 272.384C99.9181 273.97 99.4885 275.344 98.974 276.715C98.4726 278.087 97.9008 279.432 97.2611 280.746C96.6166 282.032 95.8873 283.405 95.158 284.649C94.4287 285.893 93.5723 287.176 92.9278 288.465L88.5973 296.097C87.0964 298.641 85.6378 301.199 84.0521 303.644C85.1234 300.9 86.5819 298.327 87.9557 295.798C89.4566 293.254 90.8276 290.71 92.1957 288.078C92.8637 286.767 93.4646 285.422 93.9963 284.05C94.6379 282.676 95.2796 281.39 95.7969 280.146C96.4385 278.775 96.953 277.486 97.5974 276.245C98.3239 274.914 98.926 273.628 99.9125 272.384H99.9181Z" fill="#CFB66C"/>
<path fill-rule="evenodd" clip-rule="evenodd" d="M115.185 307.545C115.185 307.545 110.945 313.162 111.369 320.28C112.525 316.551 113.984 310.847 115.185 307.545ZM119.216 313.176C119.216 313.176 117.715 328.44 116.471 335.945C118.229 327.27 118.571 327.999 119.216 313.176ZM147.302 336.847C147.302 336.847 140.956 355.503 140.826 360.687C142.199 355.356 144.856 344.465 147.302 336.833V336.847Z" fill="#DEC270"/>
<path fill-rule="evenodd" clip-rule="evenodd" d="M162.139 306.392C162.139 306.392 172.431 323.372 180.15 337.864C178.061 330.571 173.256 317.196 162.139 306.392Z" fill="#CBAF59"/>
<path fill-rule="evenodd" clip-rule="evenodd" d="M189.798 331.388C195.448 341.377 200.544 351.669 205.062 362.219C204.205 354.929 201.887 342.452 189.798 331.388Z" fill="#E3C677"/>
<path fill-rule="evenodd" clip-rule="evenodd" d="M271.098 356.424C272.811 355.353 276.2 349.518 279.16 348.063C282.117 346.562 284.347 346.262 287.007 343.302C289.664 340.213 290.399 338.328 296.224 335.885C304.374 332.366 298.768 327.821 298.768 327.821C299.666 326.939 300.626 326.123 301.64 325.379C303.743 323.793 306.186 321.862 305.974 318.473C305.674 312.772 304.603 304.495 299.927 299.693C304.473 298.749 313.176 298.107 318.583 296.736C324.842 295.147 327.716 292.917 327.716 292.917C327.716 292.917 324.115 286.786 329.947 280.613C335.778 274.439 340.538 270.75 344.055 263.845C340.024 263.33 333.879 261.188 318.196 267.146C319.043 267.545 319.86 268.003 320.641 268.517C320.641 268.517 310.994 271.177 307.477 274.137C301.344 279.324 300.572 283.569 293.926 286.744C287.281 289.918 280.59 289.059 275.061 291.631C269.532 294.203 268.715 296.391 266.697 297.335C267.127 297.85 266.612 298.706 267.426 299.435C266.912 300.165 263.91 305.052 260.866 305.052C261.165 306.211 263.738 307.067 263.738 307.067C263.738 307.067 261.852 308.441 257.05 308.783C259.492 311.327 261.81 314.1 268.198 318.131C267.684 319.202 265.538 320.791 266.398 322.806C267.342 324.822 269.789 327.566 279.561 329.797C274.586 330.009 268.758 331.168 260.905 330.096C253.058 329.152 251.772 328.595 246.927 329.797C247.442 330.311 248.813 330.311 250.014 331.682C248.728 331.767 240.666 330.738 237.922 334.342C235.05 338.07 233.806 344.204 234.021 348.32C232.52 349.049 231.061 350.335 231.791 352.995C232.52 355.655 236.336 356.512 238.781 358.182C241.223 359.983 241.438 360.624 243.756 360.197C246.198 359.683 249.799 357.241 251.902 357.241C254.005 357.241 255.504 358.827 255.504 358.827C255.504 358.827 261.208 356.082 261.765 356.596C262.279 357.111 261.849 360.412 262.406 360.927C262.972 361.314 269.397 357.498 271.112 356.424H271.098Z" fill="#ECD592"/>
<path fill-rule="evenodd" clip-rule="evenodd" d="M395.751 184.823C368.952 115.615 302.7 102.793 302.7 102.793H113.684L114.413 173.287H152.056V330.701H113.681V401.068H297.468C341.762 401.068 377.268 356.557 377.268 356.557C434.126 275.858 395.749 184.823 395.749 184.823H395.751ZM298.455 309.131C298.455 309.131 284.039 329.93 268.354 329.93H236.978L236.234 173.46H276.5C276.5 173.46 295.156 177.36 308.19 214.28C308.19 214.28 325.469 267.138 298.455 309.131Z" fill="white" fill-opacity="0.8"/>
</g>
</g>
<defs>
<clipPath id="clip0_2601_62106">
<rect width="500" height="500" rx="250" fill="white"/>
</clipPath>
<clipPath id="clip1_2601_62106">
<rect width="530" height="530" fill="white" transform="translate(-15 -15)"/>
</clipPath>
</defs>
</svg>
