<svg width="500" height="500" viewBox="0 0 500 500" fill="none" xmlns="http://www.w3.org/2000/svg">
<rect width="500" height="500" rx="250" fill="#42C1CA"/>
<path fill-rule="evenodd" clip-rule="evenodd" d="M271.538 221.172L264.154 260.56L334.308 270.407L329.385 288.87L260.462 279.023C255.538 295.024 253.077 312.256 246.923 327.027C240.769 344.259 234.615 361.491 227.231 377.492C217.385 398.417 200.154 413.187 176.769 416.88C163.231 419.342 148.462 418.111 137.385 409.495C133.692 407.033 130 402.11 130 398.417C130 393.494 132.462 387.339 136.154 384.877C138.615 383.647 144.769 384.877 148.462 386.108C152.154 389.801 155.846 394.724 158.308 399.648C165.692 409.495 175.538 410.726 185.385 403.34C196.462 393.494 202.615 379.954 206.308 366.414C213.692 336.874 221.077 308.564 227.231 279.023V274.1L162 264.253L164.462 245.79L232.154 255.637L240.769 217.48L170.615 206.402L173.077 186.708L245.692 196.555C248.154 189.17 249.385 183.015 251.846 176.861C258 154.706 264.154 132.55 278.923 112.856C293.692 93.1623 310.923 80.8536 336.769 82.0845C347.846 82.0845 358.923 85.7771 366.308 94.3932C367.538 95.624 370 98.0858 370 100.547C370 105.471 370 111.625 366.308 115.318C361.385 119.01 355.231 117.78 350.308 112.856C346.615 109.164 344.154 105.471 340.462 101.778C333.077 91.9314 322 90.7006 313.385 99.3166C307.231 105.471 301.077 114.087 297.385 122.703C288.769 148.551 282.615 175.63 274 202.709L341.692 212.556L336.769 231.019L271.538 221.172Z" fill="white"/>
</svg>
