<svg width="500" height="500" viewBox="0 0 500 500" fill="none" xmlns="http://www.w3.org/2000/svg">
<rect width="500" height="500" rx="250" fill="#345D9D"/>
<path d="M254.237 258.475L228.208 346.247H367.434C368.356 346.215 369.275 346.364 370.14 346.688C371.004 347.011 371.796 347.501 372.471 348.131C373.145 348.761 373.689 349.517 374.071 350.357C374.453 351.197 374.666 352.104 374.698 353.027V355.327L362.591 397.094C362.057 399.07 360.868 400.805 359.218 402.015C357.568 403.225 355.555 403.838 353.511 403.753H140.436L176.15 282.082L136.199 294.189L145.279 266.344L185.23 254.237L235.472 83.535C236.025 81.5709 237.22 79.8483 238.865 78.6416C240.511 77.4349 242.513 76.8135 244.552 76.8764H298.426C299.349 76.8441 300.268 76.9938 301.132 77.3171C301.997 77.6404 302.789 78.1309 303.464 78.7606C304.138 79.3902 304.682 80.1467 305.064 80.9867C305.446 81.8267 305.659 82.7338 305.69 83.6561V85.9563L263.317 230.024L303.269 217.918L294.794 246.973L254.237 258.475Z" fill="white"/>
</svg>
