<svg width="500" height="500" viewBox="0 0 500 500" fill="none" xmlns="http://www.w3.org/2000/svg">
<rect width="500" height="500" rx="250" fill="#8247E5"/>
<path d="M328.839 197.044C323.04 193.717 315.625 193.717 309.066 197.044L262.864 224.423L231.493 241.819L186.147 269.103C180.348 272.43 172.933 272.43 166.374 269.103L130.914 247.523C125.115 244.196 121.028 237.542 121.028 230.126V188.678C121.028 182.024 124.355 175.464 130.914 171.281L166.374 150.557C172.172 147.23 179.588 147.23 186.147 150.557L221.606 172.137C227.405 175.464 231.493 182.119 231.493 189.534V216.912L262.864 198.66V170.521C262.864 163.866 259.537 157.307 252.978 153.124L187.003 114.147C181.204 110.82 173.789 110.82 167.229 114.147L99.638 153.979C93.0785 157.307 89.7512 163.961 89.7512 170.521V248.379C89.7512 255.033 93.0785 261.593 99.638 265.776L166.469 304.752C172.268 308.08 179.683 308.08 186.242 304.752L231.588 278.229L262.959 259.977L308.305 233.454C314.104 230.126 321.519 230.126 328.079 233.454L363.538 254.178C369.337 257.505 373.425 264.16 373.425 271.575V313.023C373.425 319.678 370.098 326.237 363.538 330.42L328.934 351.144C323.136 354.471 315.72 354.471 309.161 351.144L273.607 330.42C267.808 327.093 263.72 320.438 263.72 313.023V286.5L232.349 304.752V332.131C232.349 338.786 235.676 345.345 242.235 349.528L309.066 388.505C314.865 391.832 322.28 391.832 328.839 388.505L395.67 349.528C401.469 346.201 405.557 339.546 405.557 332.131V253.417C405.557 246.763 402.23 240.203 395.67 236.021L328.839 197.044Z" fill="white"/>
</svg>
