<svg width="500" height="500" viewBox="0 0 500 500" fill="none" xmlns="http://www.w3.org/2000/svg">
<rect width="500" height="500" rx="250" fill="#50AF95"/>
<path fill-rule="evenodd" clip-rule="evenodd" d="M282.749 270.428C280.948 270.562 271.642 271.116 250.883 271.116C234.372 271.116 222.649 270.622 218.536 270.428C154.728 267.63 107.1 256.561 107.1 243.307C107.1 230.053 154.728 218.998 218.536 216.156V259.403C222.709 259.702 234.657 260.405 251.168 260.405C270.981 260.405 280.903 259.582 282.689 259.418V216.186C346.363 219.013 393.885 230.083 393.885 243.307C393.885 256.531 346.378 267.6 282.689 270.413L282.749 270.428ZM282.749 211.713V173.014H371.61V114H129.676V173.014H218.521V211.698C146.307 215.004 92 229.26 92 246.343C92 263.427 146.307 277.668 218.521 280.989V405H282.734V280.944C354.783 277.638 409 263.397 409 246.328C409 229.26 354.828 215.019 282.734 211.698L282.749 211.713Z" fill="white"/>
</svg>
