<svg width="500" height="500" viewBox="0 0 500 500" fill="none" xmlns="http://www.w3.org/2000/svg">
<rect width="500" height="500" rx="250" fill="#23292F"/>
<g clip-path="url(#clip0_4352_97794)">
<path d="M369.488 110H418.34L316.676 210.694C279.859 247.141 220.168 247.141 183.324 210.694L81.6206 110H130.512L207.75 186.492C219.004 197.587 234.17 203.806 249.97 203.806C265.771 203.806 280.937 197.587 292.191 186.492L369.488 110Z" fill="white"/>
<path d="M129.885 390H81L183.324 288.685C220.141 252.239 279.832 252.239 316.676 288.685L419 390H370.148L292.25 312.888C280.996 301.793 265.83 295.573 250.03 295.573C234.229 295.573 219.063 301.793 207.809 312.888L129.885 390Z" fill="white"/>
</g>
<defs>
<clipPath id="clip0_4352_97794">
<rect width="338" height="280" fill="white" transform="translate(81 110)"/>
</clipPath>
</defs>
</svg>
